<svg version="1.1" id="Layer_1" xmlns="http://www.w3.org/2000/svg" xmlns:xlink="http://www.w3.org/1999/xlink" x="0px" y="0px"
	 width="100%" viewBox="0 0 500 500" enable-background="new 0 0 500 500" xml:space="preserve">
<path fill="#F8F8F4" opacity="1.000000" stroke="none" 
	d="
M281.000000,501.000000 
	C188.666687,501.000000 96.833344,500.975555 5.000191,501.095764 
	C1.576136,501.100220 0.903036,500.423828 0.905301,497.000000 
	C1.013778,333.000092 1.013756,169.000122 0.905337,5.000247 
	C0.903074,1.576949 1.575791,0.903021 4.999876,0.905286 
	C168.999756,1.013775 332.999725,1.013761 496.999634,0.905353 
	C500.422668,0.903091 501.096985,1.575428 501.094727,4.999756 
	C500.986206,168.999634 500.986237,332.999603 501.094604,496.999512 
	C501.096893,500.422272 500.425659,501.102509 497.000244,501.096405 
	C425.167023,500.968781 353.333466,501.000000 281.000000,501.000000 
z"/>
<path fill="#E4ECD9" opacity="1.000000" stroke="none" 
	d="
M157.226990,332.752075 
	C155.612823,332.999573 154.225815,332.992432 152.422821,332.975708 
	C150.904846,331.864960 151.216858,330.687531 151.788406,329.471741 
	C152.174164,328.651215 152.855576,327.720306 150.959259,327.263184 
	C149.448822,326.967865 148.345566,326.560272 147.051315,325.698822 
	C140.799728,322.569092 135.369858,318.640747 129.597321,315.575439 
	C125.837822,313.579132 121.830917,312.525696 119.901001,308.350006 
	C117.399971,309.468262 117.695526,312.181610 115.464546,313.218262 
	C114.909111,313.405914 114.673424,313.434540 114.094238,313.372803 
	C112.303505,312.442841 112.047234,310.900543 111.525902,309.514008 
	C109.225586,303.396057 105.152969,300.020752 97.944305,300.880280 
	C97.383720,300.692413 97.169502,300.589081 96.686096,300.251923 
	C95.096313,298.123901 95.015404,296.535431 97.086365,294.944122 
	C100.183273,292.564514 99.882317,289.649445 97.799530,286.740570 
	C96.822044,285.375366 95.633743,284.045898 96.735054,282.314331 
	C97.730438,280.749329 99.398911,281.372894 100.820412,281.502655 
	C104.601959,281.847870 106.904091,279.489624 109.467087,276.831543 
	C112.145653,275.569794 113.760086,277.369293 115.496513,278.357025 
	C118.755081,280.210480 122.052834,281.888275 126.055130,282.869812 
	C128.248123,285.635498 129.116028,287.912933 124.705025,288.586700 
	C123.823898,288.721283 122.996521,288.978882 123.108284,290.033997 
	C123.222580,291.112976 124.189911,291.159790 125.019211,291.162048 
	C126.014885,291.164734 126.991760,290.903839 127.986443,290.833832 
	C131.519196,290.585205 133.188797,292.052582 133.096207,295.763275 
	C132.916779,302.953705 135.536194,306.094788 142.776962,307.725220 
	C144.415909,308.094238 146.304703,308.289612 147.281143,309.625305 
	C150.638077,314.217377 156.209717,315.829041 160.149216,319.526245 
	C162.583420,321.810730 164.783554,321.668549 167.298828,320.218597 
	C171.399872,317.854462 175.551895,316.143066 180.509033,317.270050 
	C182.421173,317.704773 184.572937,316.979004 186.231628,315.899017 
	C192.020630,312.129700 197.826538,312.636719 203.719131,315.457428 
	C205.481750,316.301208 207.201248,316.474457 209.300659,315.377991 
	C210.575104,314.791931 211.549454,314.507996 212.971970,314.522095 
	C215.442169,315.195679 217.363556,316.225372 219.271637,317.217590 
	C223.110626,319.213776 227.049744,319.921417 231.287857,318.920044 
	C234.732788,318.106110 238.042068,318.039948 241.533737,319.348389 
	C244.835022,320.585480 248.539871,318.711853 251.007599,317.340088 
	C256.717926,314.165833 262.385773,315.549927 267.999817,315.820953 
	C273.403076,316.081879 278.567535,315.803894 283.756531,314.312836 
	C288.129333,313.056274 292.481476,313.747711 296.130371,316.374542 
	C298.546234,318.113647 300.809082,318.609070 303.571716,317.967041 
	C305.351318,317.553436 307.183838,317.377899 308.992615,317.099731 
	C315.212616,316.143127 317.071991,317.389099 317.967773,323.659180 
	C318.328308,326.182373 319.481171,326.269531 321.343994,325.660004 
	C323.107941,325.082886 324.581238,324.018524 326.069458,322.927979 
	C330.155243,319.934021 331.620392,320.359467 333.980774,325.425781 
	C333.967041,326.360626 333.821594,326.870148 333.294373,327.642242 
	C331.253052,328.251465 329.490509,328.568878 327.345276,328.917633 
	C324.994354,328.930481 323.139221,329.316010 321.262451,330.691650 
	C320.255920,330.923737 319.488129,330.941437 318.336334,330.947571 
	C316.815430,331.057648 315.625244,330.839355 314.296509,331.682373 
	C301.315186,332.927704 288.604858,333.956940 275.444397,334.981812 
	C274.405151,335.003143 273.870667,335.178680 273.196411,335.748596 
	C271.602539,335.949066 270.222076,335.956909 268.427521,335.955627 
	C266.263245,334.547150 264.389801,334.776184 262.233704,335.747406 
	C259.253387,334.602478 256.520111,335.910065 253.388519,335.975922 
	C241.001709,336.333282 229.025223,335.332672 217.080063,334.809784 
	C209.971573,334.498627 203.045944,332.736359 195.904404,334.898529 
	C193.530869,335.617126 191.275024,334.819122 189.435562,332.371277 
	C186.963074,329.081024 183.193054,329.768646 178.351654,333.854919 
	C175.958206,334.007782 173.916336,334.008575 171.436920,334.005920 
	C169.882553,328.308228 164.967392,330.443054 161.587402,329.509064 
	C159.187729,328.846039 157.875687,330.174438 157.226990,332.752075 
z"/>
<path fill="#0D0E0D" opacity="1.000000" stroke="none" 
	d="
M213.253311,314.708038 
	C212.207779,314.953094 211.521240,315.145355 210.560013,315.347839 
	C206.760086,313.587128 208.322327,311.008453 209.263855,308.594482 
	C213.861023,296.807861 220.432892,286.003174 226.326736,274.877380 
	C234.476944,259.492279 243.271225,244.453598 252.621368,229.335632 
	C253.038467,228.335648 253.406952,227.718765 253.963303,226.804169 
	C256.455780,223.077835 258.827179,219.692825 261.162048,215.866577 
	C263.903473,212.580856 265.136871,208.536224 269.027893,206.249359 
	C272.018616,202.820435 274.625366,199.450485 277.040070,194.522812 
	C261.742493,198.007660 247.467896,201.259476 232.902054,204.577621 
	C233.131973,201.395004 234.811050,200.345993 237.299438,199.685318 
	C263.036133,192.852051 289.026611,187.308197 315.461334,183.942703 
	C326.869324,182.490326 338.305206,181.554962 349.815094,181.664215 
	C352.347626,181.688232 354.863373,181.655655 356.410950,184.267883 
	C355.504425,185.786621 354.037964,185.100281 352.876801,185.027344 
	C331.015686,183.653961 309.848083,188.536362 288.530334,192.073105 
	C286.221252,192.456207 284.616669,193.899765 283.266296,195.593460 
	C280.780945,198.710617 278.438385,201.941605 275.960541,205.451111 
	C275.875000,208.280350 274.197937,209.992661 272.789581,212.216705 
	C269.068787,217.457672 266.075378,222.731186 263.005432,228.375671 
	C248.522293,252.435959 234.876938,276.559814 221.909439,301.066803 
	C221.209763,302.389069 220.460587,303.680481 219.441879,305.231293 
	C217.200272,308.469635 216.619095,312.317047 213.253311,314.708038 
z"/>
<path fill="#E7EDDD" opacity="1.000000" stroke="none" 
	d="
M428.815735,298.820953 
	C425.260223,304.062225 420.190857,306.706268 413.966553,306.954285 
	C411.236633,307.063080 408.901184,307.200226 408.950134,310.776154 
	C408.956543,311.242279 408.706085,311.711853 408.574615,312.179840 
	C403.815918,309.591064 402.833069,316.651672 398.416046,315.991058 
	C396.896484,314.859314 396.910065,313.379578 397.874634,312.497040 
	C400.446991,310.143463 398.676971,308.206848 397.603638,305.792603 
	C398.961914,302.001831 402.016296,301.841309 405.033905,301.678192 
	C407.186981,301.561829 409.349182,301.714203 411.502747,301.550873 
	C413.350555,301.410736 413.656006,300.380890 413.111145,298.795532 
	C410.919464,292.418915 411.621887,291.464020 418.204620,291.706268 
	C418.833252,291.729431 419.473145,291.562012 420.117340,291.608673 
	C418.691498,291.418365 417.172455,291.938293 415.829681,291.175659 
	C412.236755,289.134979 408.909546,289.721527 405.536438,291.849213 
	C403.696503,293.009857 401.144104,294.064301 399.848663,291.581177 
	C398.562592,289.116028 400.633484,287.299774 402.604980,285.888031 
	C405.475098,283.832825 408.940094,284.349030 412.462677,283.550415 
	C413.250916,283.278900 413.717773,283.191864 414.548157,283.162292 
	C422.934906,284.521271 422.934906,284.521271 426.658051,283.030884 
	C423.608429,282.250061 420.483978,282.204956 417.204468,281.153320 
	C416.658844,280.945465 416.447418,280.845093 415.950317,280.541199 
	C413.390533,275.732666 413.660522,274.785767 418.378662,273.302246 
	C420.342041,272.684937 421.587982,271.903015 421.756470,269.741974 
	C421.954895,267.196960 420.009399,267.403259 418.480225,267.072968 
	C416.690094,266.686249 415.105530,265.817688 413.177277,264.840942 
	C409.175598,258.557983 405.658417,252.334564 400.379578,246.910889 
	C399.880920,243.517395 401.985443,243.032166 404.233246,242.610672 
	C406.640869,242.159195 409.245911,242.187561 411.333496,239.832550 
	C415.797882,237.964066 419.886871,237.516815 423.889893,240.164917 
	C425.889221,241.487518 428.233795,241.531982 430.558197,241.647141 
	C432.627777,241.749649 435.290161,241.169250 436.229340,243.596680 
	C437.141174,245.953522 434.828217,247.407608 433.527313,249.027466 
	C432.502747,250.303314 431.567017,251.810379 429.930084,252.318832 
	C427.992889,252.920532 428.282776,254.532333 427.834900,256.226196 
	C425.689240,257.479645 427.080139,259.260986 426.608398,260.924866 
	C425.227417,263.901428 426.130035,265.668823 428.743683,266.730011 
	C430.115143,267.286835 431.539825,267.724670 432.855988,268.403412 
	C436.411865,270.237152 436.781342,272.157318 433.576447,274.573090 
	C431.845428,275.877869 431.776947,276.590027 433.380188,278.166870 
	C434.049347,279.863129 433.877502,281.528839 435.369873,282.903076 
	C435.828918,283.842438 435.880035,284.516876 435.599365,285.523773 
	C434.327454,287.202301 432.662781,286.533081 431.269196,286.914886 
	C428.699158,287.618896 429.216064,288.963257 430.512421,290.782440 
	C430.463715,291.417603 430.546478,291.706970 431.086395,291.769775 
	C431.897156,291.562286 432.446686,291.719360 433.264526,292.084686 
	C434.284058,292.756134 434.798859,293.432220 434.992584,294.669373 
	C433.916473,297.152191 432.212402,298.236816 429.386993,298.020477 
	C428.734406,298.018524 428.458740,298.009766 428.188110,297.997772 
	C428.188354,298.312042 428.338165,298.526337 428.815735,298.820953 
z"/>
<path fill="#EAEFE0" opacity="1.000000" stroke="none" 
	d="
M411.770203,239.740936 
	C411.257477,243.952484 407.831726,243.353653 405.172119,243.968643 
	C403.598358,244.332550 401.384827,243.265640 401.020508,246.427673 
	C400.849945,246.980453 400.695648,247.144058 400.203705,247.347305 
	C399.410828,247.312851 398.966064,247.198074 398.198975,246.919556 
	C397.647217,246.695877 397.427612,246.597382 396.883453,246.330566 
	C391.708588,242.056320 385.769104,240.649109 379.769623,239.400345 
	C378.185852,239.070694 376.383789,239.230255 375.573059,236.979645 
	C376.610687,233.862823 378.986420,233.680252 381.348694,233.574829 
	C384.838959,233.419067 388.336487,233.614563 391.826477,233.460251 
	C393.990570,233.364548 396.135406,233.094986 397.707245,231.160370 
	C396.642578,229.362122 394.586517,229.445190 393.065399,228.611053 
	C391.353912,227.672531 389.870636,226.693069 390.248291,224.450653 
	C390.591614,222.411743 392.273499,222.086365 393.926819,221.652100 
	C395.277161,221.297409 397.618561,222.000381 397.734558,220.235046 
	C397.871399,218.151810 395.726074,216.177536 393.975098,216.197144 
	C387.560852,216.268982 382.287384,211.847076 375.730499,212.274078 
	C370.295868,212.627991 364.917023,209.681839 359.435699,210.572937 
	C347.851990,212.456070 336.263275,209.819992 324.633179,211.160645 
	C319.014038,211.808380 313.056183,211.385483 307.268799,210.773346 
	C302.959229,210.317490 298.635040,210.134033 294.395050,211.396637 
	C292.941162,211.829605 291.436096,212.136612 289.971954,211.661789 
	C286.214935,210.443359 282.778595,211.271103 279.393890,212.990692 
	C276.917297,214.248947 274.388397,214.967636 271.894531,212.268494 
	C272.231262,209.548996 274.333954,208.183868 275.587555,205.946259 
	C278.621735,208.507507 281.556213,206.446442 284.305237,205.946808 
	C289.742523,204.958572 295.041199,204.744583 300.557373,205.769485 
	C304.411102,206.485535 308.571960,206.362000 312.479706,205.803055 
	C320.370453,204.674454 328.208710,205.781219 336.036346,205.593292 
	C344.215973,205.396912 352.541260,205.201675 360.611725,203.242416 
	C362.655396,202.746277 364.250702,201.761047 366.016479,204.494507 
	C367.692566,207.089142 370.931732,207.193756 374.049713,206.156097 
	C377.993073,204.843765 382.122101,203.306137 385.001831,208.198196 
	C385.210236,208.552200 385.900299,208.903809 386.285950,208.830917 
	C394.298676,207.316498 399.624756,215.027374 407.607910,214.947464 
	C412.589111,217.660370 412.929138,222.079803 407.807617,227.595230 
	C410.149597,228.693466 414.329529,227.172775 414.544098,231.133316 
	C414.755707,235.038315 410.889130,234.579163 408.332764,235.319687 
	C407.302094,235.618271 405.721710,235.427536 405.884369,237.086761 
	C405.996765,238.233170 407.260559,238.357178 408.220581,238.555038 
	C409.349213,238.787659 410.525299,238.831177 411.770203,239.740936 
z"/>
<path fill="#E7EDDD" opacity="1.000000" stroke="none" 
	d="
M110.268562,275.869324 
	C108.357033,281.468323 105.463326,283.265656 99.667351,282.722382 
	C98.739990,282.635468 97.689232,281.825195 97.239532,283.310760 
	C96.967163,284.210480 97.587334,284.837860 98.160492,285.474457 
	C102.006683,289.746094 101.702332,292.939453 97.100853,296.185364 
	C95.641342,297.214905 96.897087,298.257965 96.962997,299.647888 
	C93.987312,301.403473 92.333977,299.156616 90.743690,297.405853 
	C88.968246,295.451294 87.378342,293.294342 85.802567,290.705811 
	C84.954727,288.975525 85.354279,287.561035 85.640503,285.793213 
	C86.304138,283.357086 88.527893,283.380524 89.992767,282.226044 
	C89.077690,281.716949 88.334984,282.773193 87.498375,282.344086 
	C84.209602,280.657227 82.547646,272.124512 85.348419,269.892426 
	C87.529312,268.154358 87.767784,266.627197 87.253632,263.952881 
	C86.446045,259.752289 85.348000,255.855240 82.781570,252.273376 
	C83.104996,251.678802 83.293282,251.419556 83.780182,251.109253 
	C84.698990,250.259109 85.584084,250.033203 86.894501,250.116638 
	C88.174141,250.297440 88.921745,251.286896 90.275940,250.664108 
	C91.002419,250.095016 91.461433,249.682632 91.789986,248.810486 
	C90.010292,246.368286 90.060776,249.796112 88.531021,249.691803 
	C86.931183,249.982025 85.697098,250.016785 84.939148,248.386963 
	C89.105759,242.754349 93.844734,238.278107 100.244156,235.977966 
	C102.361450,235.216965 102.771706,233.620407 102.992172,231.381592 
	C103.085655,230.860947 103.162544,230.610596 103.265007,230.599640 
	C111.164398,229.755569 114.771957,222.731262 120.403343,218.635818 
	C122.280571,217.270584 124.071671,216.522842 126.669205,217.287964 
	C128.520676,219.224350 130.523956,219.696060 132.780548,219.763779 
	C134.242569,219.807648 136.051361,219.905334 136.337067,221.800003 
	C136.651108,223.882675 134.925400,224.610367 133.344360,225.221924 
	C130.697922,226.245605 128.030579,227.128098 125.110550,227.019424 
	C122.248116,226.912903 119.967400,227.802017 118.695114,230.736038 
	C117.550766,233.374969 115.342758,234.670898 112.408051,234.975266 
	C106.856148,235.551041 103.397163,239.672607 99.521637,243.005035 
	C98.530258,243.857483 97.780403,245.223633 97.892303,246.560959 
	C98.276527,251.152847 96.654556,254.950485 94.046127,258.626495 
	C92.193428,261.237457 93.411736,263.440094 96.193680,264.585480 
	C98.186363,265.405914 100.349228,265.793182 102.677124,266.767761 
	C104.699493,267.713776 105.723259,269.435333 107.729782,270.417419 
	C108.315033,270.979248 108.581772,271.354797 108.929718,272.081512 
	C109.367447,273.472809 109.849197,274.485138 110.268562,275.869324 
z"/>
<path fill="#E7EDDD" opacity="1.000000" stroke="none" 
	d="
M268.936768,206.123932 
	C267.289886,209.369415 265.212280,212.576447 262.915039,216.016876 
	C259.679626,217.676346 256.415131,217.338669 253.359863,216.967804 
	C243.376755,215.756073 233.408447,217.259109 223.454147,217.251907 
	C215.012772,217.245789 206.002792,216.920746 197.919022,219.288849 
	C191.147461,221.272552 185.516098,218.535782 179.431854,218.129349 
	C172.914902,217.694031 166.165649,216.727570 160.087204,218.328125 
	C154.510086,219.796677 149.743210,220.553329 144.114609,218.881119 
	C141.027893,217.964081 137.257767,219.661316 133.734070,219.481094 
	C131.907822,219.387680 130.054016,219.544968 128.054184,218.325653 
	C127.131981,215.099091 129.311462,214.880722 131.234543,214.520035 
	C138.797791,213.101425 146.486923,212.828461 154.560516,212.036255 
	C163.497528,212.817947 171.722900,210.094101 180.142593,210.032822 
	C193.512344,209.935501 206.884430,210.109497 220.253433,209.969284 
	C236.421188,209.799713 252.618317,209.811829 268.936768,206.123932 
z"/>
<path fill="#EEF2E6" opacity="1.000000" stroke="none" 
	d="
M412.418701,240.003906 
	C410.183716,239.977310 408.343597,240.111206 406.552368,239.874649 
	C404.811310,239.644730 403.267029,238.630447 403.415680,236.684128 
	C403.558807,234.810272 404.920135,233.843155 406.905182,234.002167 
	C408.756256,234.150436 410.498993,233.732269 412.227783,233.079788 
	C413.285492,232.680588 414.032257,232.135513 413.757690,230.951126 
	C413.513519,229.897842 412.731262,229.092468 411.613556,229.368546 
	C410.431458,229.660538 409.356537,229.763931 408.254272,229.231552 
	C406.995453,228.623566 404.776642,229.741730 404.418091,227.827377 
	C403.962494,225.395020 406.579620,226.593704 407.516083,225.800552 
	C411.136200,222.734604 410.954620,219.245865 408.140747,215.317413 
	C410.407837,212.885834 411.531036,214.971863 412.617126,216.547440 
	C413.334534,217.588196 413.216888,219.493408 414.755676,219.634903 
	C418.111786,219.943512 420.367188,220.144775 421.500000,224.641632 
	C422.068909,226.899963 421.911255,227.540070 420.672852,228.545441 
	C419.394470,229.583237 417.524231,230.221832 418.361816,232.333588 
	C419.127991,234.265274 421.022339,233.998383 422.663849,233.991196 
	C427.729156,233.968994 432.774658,234.637604 437.867126,234.070374 
	C440.714142,233.753265 442.821991,234.414551 442.462372,238.443024 
	C442.104645,242.450424 441.848083,246.252121 438.878784,249.262955 
	C438.020508,250.133255 438.379303,250.980118 438.424744,251.970215 
	C438.611694,256.042938 436.765930,258.809082 432.401611,260.015198 
	C430.039734,260.032196 428.612396,258.941681 427.153015,257.303986 
	C426.969727,255.026993 427.208923,253.027161 426.154694,251.103577 
	C428.550964,251.382080 435.162628,246.678909 435.452301,244.643127 
	C435.728271,242.703445 434.182190,242.987427 433.158142,243.039658 
	C428.616852,243.271332 424.400330,242.832977 420.513794,239.916687 
	C418.286011,238.245056 415.433807,240.644485 412.418701,240.003906 
z"/>
<path fill="#E4ECD9" opacity="1.000000" stroke="none" 
	d="
M412.811035,283.685730 
	C412.683319,286.276398 411.351776,285.823669 409.715881,285.450653 
	C406.753326,284.775146 404.219452,286.197662 401.933075,287.835571 
	C400.897034,288.577789 399.858582,290.079315 400.605316,291.268768 
	C401.417877,292.563202 402.954285,292.004852 404.155396,291.244659 
	C404.994415,290.713654 405.820618,290.157593 406.689484,289.679932 
	C407.560608,289.201050 408.469482,288.452240 409.375671,288.431610 
	C414.672424,288.311127 419.289276,291.115448 424.519806,291.635040 
	C421.899292,293.298828 419.385132,293.282043 416.871033,292.424011 
	C415.177795,291.846161 413.995056,292.305939 413.109070,293.830780 
	C412.242126,295.322845 412.017120,296.399597 413.988617,297.360413 
	C415.643829,298.167114 415.102814,300.036224 414.809662,301.410767 
	C414.379700,303.426849 412.529602,302.845551 411.117157,303.002716 
	C406.807709,303.482330 402.049683,301.530334 398.174622,305.670471 
	C394.991638,307.984711 392.434906,310.122711 391.404053,313.985077 
	C390.694336,316.644287 388.249176,318.471893 385.280029,319.789490 
	C384.562683,320.013428 384.123352,320.017670 383.354492,320.020325 
	C381.224030,321.485718 379.286072,321.231628 377.488434,320.187073 
	C376.187195,319.430847 374.996796,319.527039 373.350647,319.957794 
	C371.935608,319.996216 370.871216,319.991241 369.407684,319.982117 
	C368.655975,319.587463 368.388275,319.145660 368.160736,318.271210 
	C370.596741,313.603821 375.318848,314.149506 379.168671,312.921021 
	C380.671173,312.441528 382.441284,312.741669 384.038025,312.163208 
	C386.216614,311.374054 387.223846,310.357697 386.338837,307.712952 
	C384.816864,303.164886 386.141663,301.496979 390.855530,300.658936 
	C396.867828,299.590057 402.964813,299.625610 409.108826,298.980225 
	C402.306824,298.914581 396.593567,295.184418 390.218536,293.878876 
	C387.935822,293.411407 386.380432,291.992584 388.409363,290.309723 
	C390.966980,288.188293 391.869843,283.302460 395.232269,283.590027 
	C401.095490,284.091522 406.837036,279.985504 412.811035,283.685730 
z"/>
<path fill="#EAEFE0" opacity="1.000000" stroke="none" 
	d="
M146.744522,324.767639 
	C148.103561,325.310760 149.206512,325.621552 150.654114,325.966797 
	C152.025177,327.326965 151.259308,328.151917 150.090958,328.582489 
	C147.541504,329.522064 145.262238,331.159668 142.247787,331.763855 
	C137.787781,331.431671 133.104599,332.466949 129.926941,328.341858 
	C129.638885,327.967926 128.661743,327.957825 128.036789,328.035980 
	C120.669830,328.957367 115.476204,324.220856 109.860970,320.840790 
	C107.785698,319.591583 105.666252,319.162201 103.247894,318.273682 
	C103.037582,316.738007 103.736221,315.749420 104.568222,314.428833 
	C107.266685,311.489777 109.998367,310.221100 113.692307,312.787079 
	C114.165825,313.001465 114.332695,313.001740 114.749886,313.002258 
	C119.315475,309.978882 121.311096,313.309479 124.827148,315.322327 
	C130.519669,318.581085 136.406815,322.360291 143.228073,323.465515 
	C144.376480,323.651642 145.520142,323.816498 146.744522,324.767639 
z"/>
<path fill="#EAEFE0" opacity="1.000000" stroke="none" 
	d="
M82.689331,252.161743 
	C87.734940,254.328735 86.863777,259.128235 88.335747,263.042328 
	C89.910614,267.230011 89.763336,269.201324 85.664497,271.054657 
	C83.842476,271.878510 83.361153,273.859894 85.266769,275.563110 
	C85.743103,275.988892 86.560783,276.531738 86.523056,276.959076 
	C85.925453,283.727448 88.203964,282.016602 91.104317,278.104248 
	C93.907494,283.824005 88.694290,283.624176 86.217163,285.719025 
	C85.830193,286.085419 85.660072,286.172089 85.235413,286.127533 
	C84.968971,278.512115 81.984886,274.281616 74.631332,272.176941 
	C72.122879,271.459015 71.201981,270.023834 72.897934,268.538208 
	C77.930786,264.129547 78.680145,257.394104 82.689331,252.161743 
z"/>
<path fill="#EAEFE0" opacity="1.000000" stroke="none" 
	d="
M178.258179,334.279968 
	C178.816940,331.128723 180.030746,328.499664 183.651794,329.057373 
	C186.435379,329.486145 190.668152,326.865662 191.299286,332.561432 
	C191.475311,334.149872 198.828003,334.941864 200.359772,333.378998 
	C203.844910,329.823120 207.390259,330.005585 211.085709,332.701721 
	C214.066071,334.876129 217.617157,334.033997 220.546783,333.769928 
	C231.293335,332.801392 241.771149,335.238983 252.693146,335.688538 
	C252.746826,336.192230 252.510452,336.593628 252.255234,336.605988 
	C238.975464,337.249084 225.670471,337.524017 212.424454,336.486176 
	C207.267578,336.082153 202.105026,336.614960 197.030151,335.917877 
	C190.871597,335.071960 184.547958,336.780121 178.258179,334.279968 
z"/>
<path fill="#EEF2E6" opacity="1.000000" stroke="none" 
	d="
M154.791962,211.759003 
	C149.713379,214.486633 143.998108,214.645721 138.342636,214.959213 
	C134.791412,215.156067 131.258759,215.146469 128.079987,217.622437 
	C127.830978,218.126205 127.665314,218.254868 127.249977,218.192062 
	C121.754913,217.048615 118.411812,221.138687 116.273438,224.132980 
	C112.891960,228.867950 109.266899,231.157196 103.354721,230.961823 
	C101.275391,229.316818 102.226860,228.403183 103.966644,227.818192 
	C107.905785,226.493668 111.303932,223.477646 113.915703,221.050156 
	C117.367165,217.842239 121.201378,216.602478 125.009178,215.116592 
	C134.487579,211.417892 144.432480,210.307053 154.791962,211.759003 
z"/>
<path fill="#E4ECD9" opacity="1.000000" stroke="none" 
	d="
M360.289795,321.719635 
	C352.609772,323.316528 345.228821,324.662018 337.422729,326.003357 
	C336.719116,326.075500 336.440674,326.151855 335.858276,325.919220 
	C334.770203,323.513031 335.717773,321.917297 337.407532,321.010406 
	C345.141022,316.859833 353.488159,315.458130 362.184998,315.918915 
	C363.003235,315.962250 363.708618,316.513123 364.354004,317.595703 
	C364.309753,320.407959 362.095917,320.542694 360.289795,321.719635 
z"/>
<path fill="#EAEFE0" opacity="1.000000" stroke="none" 
	d="
M385.367462,320.007996 
	C387.069153,316.411774 391.499695,314.501923 391.658295,309.365356 
	C391.722565,307.284027 394.790100,306.230713 397.618958,306.002991 
	C401.120483,308.026764 403.514526,310.086945 398.725006,313.013794 
	C398.221283,313.321625 398.237549,314.480316 398.007507,315.616638 
	C393.818268,315.247986 393.272797,320.623505 389.355865,320.963226 
	C388.178802,319.799927 386.913696,320.041748 385.367462,320.007996 
z"/>
<path fill="#EEF2E6" opacity="1.000000" stroke="none" 
	d="
M433.351074,279.249908 
	C432.457123,278.655243 431.955170,278.199005 431.365417,277.986694 
	C430.195740,277.565582 429.183868,277.007446 429.218048,275.620667 
	C429.259552,273.936493 430.636932,274.077209 431.764404,273.994354 
	C433.177948,273.890442 434.467712,273.534698 434.743164,271.939606 
	C435.083801,269.967072 433.272461,270.053955 432.172638,269.586487 
	C430.666199,268.946198 429.004364,268.639618 427.555847,267.901947 
	C424.677063,266.435913 422.596069,264.541870 425.640259,261.063110 
	C427.317078,259.890289 428.757111,259.646881 430.678284,260.702637 
	C429.679901,262.945404 430.341644,264.604187 432.180023,265.443054 
	C436.461823,267.396881 437.130585,271.319031 437.999817,275.601532 
	C437.729584,278.590332 437.019409,280.644226 433.351074,279.249908 
z"/>
<path fill="#E7EDDD" opacity="1.000000" stroke="none" 
	d="
M157.298981,333.293457 
	C154.890778,328.311249 157.335358,327.582794 161.283752,327.987000 
	C163.846909,328.249359 166.255951,328.822754 169.044907,328.409119 
	C173.438980,327.757385 170.815979,331.382233 171.005524,333.629517 
	C166.534454,333.793518 162.041428,334.476044 157.298981,333.293457 
z"/>
<path fill="#EEF2E6" opacity="1.000000" stroke="none" 
	d="
M84.613541,286.002014 
	C85.150772,285.997040 85.320679,285.997772 85.745445,285.998627 
	C87.581032,287.090973 86.085197,288.236877 86.030807,289.678589 
	C85.887550,292.057373 87.056808,293.674194 87.786354,295.462219 
	C88.545403,297.322540 89.861267,299.339050 87.321594,301.093689 
	C83.897690,300.864014 82.354988,299.152954 81.985870,296.159149 
	C81.870636,295.224518 81.737297,294.194672 81.266518,293.417969 
	C79.028976,289.726288 79.715378,287.923370 84.613541,286.002014 
z"/>
<path fill="#EAEFE0" opacity="1.000000" stroke="none" 
	d="
M87.052078,301.344543 
	C89.008278,298.351746 86.907715,296.353943 85.742950,294.376801 
	C84.894630,292.936737 83.279503,291.867218 85.708839,290.150299 
	C88.734634,291.727203 89.937469,294.702820 91.888268,297.063660 
	C92.951378,298.350250 94.798416,298.989044 96.646103,299.960022 
	C97.000305,300.000000 97.000000,300.000000 97.000153,300.000000 
	C97.738960,300.759949 98.009499,301.671417 97.781372,303.051270 
	C96.865639,304.809692 95.752457,304.272949 94.732529,303.758179 
	C93.428352,303.099945 92.225494,302.138123 90.314240,302.914001 
	C88.868515,302.929932 87.592369,303.184601 87.052078,301.344543 
z"/>
<path fill="#EEF2E6" opacity="1.000000" stroke="none" 
	d="
M435.305664,294.845520 
	C434.499786,294.439301 433.991608,293.877411 433.242310,293.157776 
	C432.344940,290.586731 433.358917,288.564819 434.751617,286.285950 
	C434.996429,285.248779 434.996521,284.500000 434.995117,283.376831 
	C434.958466,281.258972 436.126617,281.378723 437.650238,281.754944 
	C438.247192,282.803284 438.496857,283.607819 438.873230,284.706787 
	C439.728790,285.719269 440.457886,286.437073 440.929382,287.709839 
	C440.711639,291.450775 436.907959,292.059631 435.305664,294.845520 
z"/>
<path fill="#E7EDDD" opacity="1.000000" stroke="none" 
	d="
M142.416412,332.002808 
	C144.241272,329.006042 147.834747,328.260193 150.950409,326.320740 
	C152.242874,326.162842 153.852280,325.475006 154.587143,326.909302 
	C155.466248,328.625183 153.389191,328.921448 152.789337,329.948914 
	C152.394196,330.625793 152.264954,331.457947 152.011749,332.593323 
	C151.255798,332.973663 150.504745,332.981232 149.378265,332.984283 
	C148.601807,332.553284 148.155182,332.197388 147.282349,332.035156 
	C145.606628,332.012939 144.219559,332.009888 142.416412,332.002808 
z"/>
<path fill="#EEF2E6" opacity="1.000000" stroke="none" 
	d="
M90.159744,303.302673 
	C92.863731,296.654266 94.214302,303.979431 96.703812,303.850891 
	C98.838364,303.322144 99.875542,304.223633 100.592422,306.184662 
	C100.499748,307.342224 100.107475,307.963867 99.259628,308.740662 
	C96.106575,307.209167 93.213005,305.409821 90.159744,303.302673 
z"/>
<path fill="#EAEFE0" opacity="1.000000" stroke="none" 
	d="
M438.265717,281.795135 
	C437.136871,282.161438 436.276184,282.324097 435.204529,282.744598 
	C432.092499,283.279327 432.048828,281.773529 432.963440,279.346558 
	C435.079132,279.192963 436.895874,278.921722 437.732819,276.228241 
	C440.403931,277.650696 440.175842,279.553802 438.265717,281.795135 
z"/>
<path fill="#EAEFE0" opacity="1.000000" stroke="none" 
	d="
M373.257263,320.274597 
	C374.166290,317.940521 375.887848,317.249603 377.726349,318.826630 
	C379.147827,320.045959 380.633118,319.943390 382.616730,320.011078 
	C380.091919,324.456146 376.693939,320.538208 373.257263,320.274597 
z"/>
<path fill="#EAEFE0" opacity="1.000000" stroke="none" 
	d="
M431.237000,260.904480 
	C429.626068,261.010376 428.229706,261.003693 426.414825,260.994202 
	C425.949615,260.057800 426.068481,259.091431 425.264648,258.351471 
	C424.688751,257.821289 422.917908,258.025726 423.756012,256.665161 
	C424.331360,255.731079 425.434631,256.934296 426.663940,256.966980 
	C428.974152,257.025909 430.078888,258.678680 431.832214,259.757843 
	C431.910645,260.337280 431.718170,260.592529 431.237000,260.904480 
z"/>
<path fill="#EAEFE0" opacity="1.000000" stroke="none" 
	d="
M360.395447,321.979065 
	C360.177063,319.950836 361.798462,319.573608 363.655304,319.035645 
	C365.225372,317.852325 366.563049,317.038483 368.671448,317.769592 
	C369.001282,318.439758 369.002563,318.879547 369.006195,319.648682 
	C366.220459,320.435455 363.853851,322.614868 360.395447,321.979065 
z"/>
<path fill="#EEF2E6" opacity="1.000000" stroke="none" 
	d="
M104.965752,314.657593 
	C104.991005,316.148743 104.557930,317.075256 103.288010,317.856598 
	C100.547127,316.612000 100.595688,314.028656 100.007507,311.372803 
	C102.062202,309.607025 102.759254,311.595215 104.084000,312.827759 
	C104.559769,313.476685 104.770546,313.882965 104.965752,314.657593 
z"/>
<path fill="#EAEFE0" opacity="1.000000" stroke="none" 
	d="
M84.748001,248.215179 
	C85.835266,249.196548 87.096321,248.958115 88.637230,248.998535 
	C89.996971,248.168900 91.095741,247.940231 92.658890,248.712708 
	C92.917870,249.902313 92.668144,250.685669 91.317490,250.956085 
	C90.313637,251.577988 89.543976,251.739594 88.344498,251.236877 
	C86.934135,251.001297 85.866165,251.000763 84.397614,250.999512 
	C84.160904,250.140030 84.324776,249.281265 84.748001,248.215179 
z"/>
<path fill="#EAEFE0" opacity="1.000000" stroke="none" 
	d="
M104.308159,313.652039 
	C102.881844,313.028778 101.762772,312.058746 100.322762,311.043762 
	C99.994827,310.558960 99.987831,310.119171 99.976944,309.349426 
	C100.207863,308.821899 100.442680,308.624237 101.118271,308.289398 
	C105.158302,308.339417 105.443138,310.492432 104.308159,313.652039 
z"/>
<path fill="#EAEFE0" opacity="1.000000" stroke="none" 
	d="
M262.420593,335.978882 
	C263.559204,332.683716 265.655975,333.597931 267.928314,335.588837 
	C266.292480,335.961090 264.571533,335.975647 262.420593,335.978882 
z"/>
<path fill="#EAEFE0" opacity="1.000000" stroke="none" 
	d="
M441.303070,287.850250 
	C439.563660,287.917023 438.978119,287.081177 439.006287,285.354065 
	C440.057129,285.714325 444.359344,283.298157 441.303070,287.850250 
z"/>
<path fill="#E1E9D5" opacity="1.000000" stroke="none" 
	d="
M321.385010,330.886963 
	C322.061737,328.315735 324.173340,328.126282 326.738647,328.699768 
	C325.564758,330.515442 323.370636,329.917175 321.385010,330.886963 
z"/>
<path fill="#EAEFE0" opacity="1.000000" stroke="none" 
	d="
M429.001404,298.756958 
	C427.545044,298.858032 426.007965,299.374634 424.384949,298.256989 
	C425.568939,296.521759 427.017731,296.871521 428.772766,297.754089 
	C429.015167,298.024048 429.008881,298.512726 429.001404,298.756958 
z"/>
<path fill="#E1E9D5" opacity="1.000000" stroke="none" 
	d="
M335.656067,325.762329 
	C335.998779,325.996338 336.498199,326.000183 336.747864,325.999695 
	C336.603363,328.011414 335.425903,328.860565 333.201355,328.182373 
	C333.011993,327.505127 333.008362,327.076172 333.003601,326.324829 
	C333.686096,325.422089 334.457672,325.270172 335.656067,325.762329 
z"/>
<path fill="#E1E9D5" opacity="1.000000" stroke="none" 
	d="
M314.386719,331.924744 
	C314.441742,329.631134 315.873505,329.796448 317.729675,330.690552 
	C317.176941,332.198639 315.914734,331.924316 314.386719,331.924744 
z"/>
<path fill="#EAEFE0" opacity="1.000000" stroke="none" 
	d="
M147.167953,332.253937 
	C147.880524,330.945160 148.509888,331.160431 148.968079,332.692017 
	C148.449295,332.817139 147.895767,332.654510 147.167953,332.253937 
z"/>
<path fill="#EAEFE0" opacity="1.000000" stroke="none" 
	d="
M273.282257,335.935669 
	C273.180878,335.050415 273.196136,333.942352 274.820740,334.760010 
	C274.523407,335.294983 274.052460,335.612518 273.282257,335.935669 
z"/>
<path fill="#E4ECD9" opacity="1.000000" stroke="none" 
	d="
M101.210739,308.664185 
	C100.827393,308.999756 100.656616,309.001923 100.229446,309.011780 
	C99.973053,309.019531 99.486610,309.013306 99.243378,309.010925 
	C99.172173,308.453644 99.344208,307.898773 99.757355,307.171326 
	C101.056381,306.819244 101.354752,307.452118 101.210739,308.664185 
z"/>
<path fill="#EAEFE0" opacity="1.000000" stroke="none" 
	d="
M388.998474,320.998047 
	C388.911255,321.033264 388.825623,321.070404 388.871887,321.055298 
	C389.003845,321.002991 389.000000,321.000000 388.998474,320.998047 
z"/>
<path fill="#E0E8D4" opacity="1.000000" stroke="none" 
	d="
M254.256485,228.744904 
	C238.790512,254.956863 223.697403,281.346436 210.611252,308.840179 
	C209.716476,310.720062 208.086182,312.559784 210.131439,315.056427 
	C209.011566,318.381104 206.554138,318.784393 204.157135,317.358307 
	C198.244690,313.840668 192.759537,313.162964 186.669876,317.331116 
	C184.326828,318.934845 180.946854,319.614380 177.602753,318.422394 
	C172.610413,316.642944 169.560303,321.509064 165.327942,322.651123 
	C163.032776,323.270477 161.702087,324.663666 160.509445,321.446472 
	C159.698135,319.257965 157.013275,318.944183 155.179504,318.163940 
	C149.445541,315.724274 147.067596,308.585968 139.446411,308.358582 
	C134.338135,308.206238 131.153671,301.426086 131.807098,295.978821 
	C132.522247,290.016998 128.533249,292.173523 125.662521,292.646484 
	C124.181992,292.890442 122.527252,293.533722 121.494316,292.160034 
	C120.558289,290.915222 120.906578,289.301819 121.610756,287.890472 
	C122.066597,286.976898 122.556152,286.002960 123.824333,286.579559 
	C128.987595,288.927094 126.255127,285.341827 126.298279,283.083374 
	C127.036789,282.402802 127.522720,282.402283 128.351532,282.638458 
	C131.028412,284.243927 133.842102,284.360657 136.690887,285.494507 
	C143.347473,285.560455 149.613953,285.580994 154.791397,284.966064 
	C149.830734,285.339264 143.797791,285.656464 137.355606,285.485046 
	C136.706512,285.444000 136.452759,285.405426 135.910904,285.123169 
	C134.668564,282.597809 135.992081,281.447083 137.810867,280.634766 
	C145.631332,277.141968 153.647064,274.259064 162.169601,273.001587 
	C162.467377,272.957642 162.639084,272.942902 162.663940,272.953766 
	C170.991684,276.591339 173.143143,269.171906 176.778290,264.828522 
	C179.877426,261.125580 175.016449,260.927856 173.421432,258.967163 
	C165.572647,257.302063 165.430481,257.149597 166.496338,251.124695 
	C168.784500,249.330185 170.783051,249.746124 173.046722,251.234955 
	C174.463425,252.311554 175.652206,252.883469 176.925461,251.833908 
	C179.962143,249.330750 183.025269,249.989227 186.352753,251.938782 
	C186.670776,252.873825 186.947571,252.066833 186.757050,252.653183 
	C184.908798,258.341125 189.043076,257.369568 191.790329,257.513702 
	C187.911591,257.927490 187.436127,255.428665 188.129120,251.807220 
	C188.485733,251.076126 188.799423,250.744080 189.183701,250.471649 
	C189.676727,250.122101 190.318863,250.236740 190.823166,249.929657 
	C190.192902,249.927505 189.598450,249.775650 188.752609,249.292068 
	C187.481384,247.920471 186.975311,246.602600 187.287750,244.717041 
	C187.647186,243.995834 187.966171,243.697937 188.377411,243.485062 
	C188.969208,243.178711 188.264740,243.700348 188.754608,243.255371 
	C188.830002,243.186874 188.502335,243.312180 188.054810,243.377380 
	C187.290680,243.650299 186.827148,243.674240 186.003845,243.450653 
	C185.231781,242.981155 184.904251,242.583847 184.590546,241.720840 
	C184.992310,237.517654 187.072311,235.946411 190.969940,236.068146 
	C195.317871,236.203918 199.432556,235.315247 203.377228,233.032944 
	C208.381805,230.137375 213.175873,231.175919 216.526138,235.709930 
	C218.723251,238.683319 220.755066,237.821289 222.810989,236.134644 
	C230.779587,229.597244 240.968811,230.379898 250.108704,227.729752 
	C251.347382,227.370605 252.767197,227.695984 254.256485,228.744904 
z"/>
<path fill="#E4EBD9" opacity="1.000000" stroke="none" 
	d="
M336.005676,325.619690 
	C335.249664,325.998291 334.500580,326.000244 333.376953,326.002319 
	C331.160370,321.105194 330.114288,320.764618 326.901093,324.230530 
	C324.859680,326.432465 322.079651,327.079742 319.451080,327.833435 
	C317.047913,328.522522 315.750763,327.467834 316.240723,324.576569 
	C317.163116,319.133331 315.140228,317.202209 309.874847,318.208496 
	C307.121124,318.734772 304.394165,319.415894 301.627869,319.855713 
	C300.016876,320.111816 298.175140,320.474365 296.888214,319.109192 
	C292.433441,314.383606 287.483765,314.631500 281.657135,316.453705 
	C274.134186,318.806366 266.282104,317.038147 258.594177,316.581024 
	C256.622772,316.463806 255.060303,315.955994 253.977585,318.034485 
	C253.290924,319.352661 252.325333,320.092865 250.742767,319.394928 
	C248.792282,318.534729 247.269302,319.403503 245.705444,320.534119 
	C244.672501,321.280945 243.171127,322.464478 242.096466,321.413116 
	C238.147049,317.549377 232.781631,319.219055 229.669235,320.552368 
	C224.373795,322.820831 221.705490,318.739868 217.832413,318.031097 
	C216.374603,317.764313 214.201431,317.247345 213.056000,315.092834 
	C214.502930,311.687347 216.111526,308.613892 217.952026,305.272919 
	C221.253723,303.996368 221.407196,305.980408 221.519379,308.165192 
	C221.789337,313.423553 224.689163,315.666901 229.705643,314.196411 
	C233.376541,313.120361 236.989838,311.849670 240.720139,310.960846 
	C243.152390,310.381317 244.568100,308.875427 245.623062,306.494415 
	C247.716766,301.768921 249.652847,300.932831 254.657944,301.864746 
	C257.317688,302.360016 260.061096,302.369324 262.613647,301.969025 
	C270.012543,300.808655 275.883575,303.474030 281.203278,308.236511 
	C284.009583,310.748871 285.705933,308.772156 287.088898,306.437653 
	C290.193146,301.197418 290.240784,301.118286 293.941864,305.433136 
	C295.678497,307.457764 297.490479,307.655579 299.684418,306.529327 
	C300.721954,305.996704 301.654602,305.273163 302.720551,304.794586 
	C307.886841,302.475128 311.805573,304.399200 313.124390,309.935852 
	C313.391174,311.055908 313.280884,312.359924 314.789581,312.654846 
	C315.697327,312.832306 316.464020,312.416138 316.903076,311.656372 
	C317.543762,310.547546 317.452972,309.308167 316.678589,308.358185 
	C314.869568,306.138885 312.353790,303.780090 314.989014,301.023651 
	C317.360046,298.543549 320.589264,299.807953 323.458862,300.811462 
	C324.246735,301.086945 325.051666,301.288330 325.871521,301.448669 
	C331.949097,302.637390 331.978882,302.653229 329.717773,308.274902 
	C329.292084,309.333252 329.105316,310.249359 330.148102,310.876770 
	C331.506287,311.693939 333.021301,311.756165 334.459717,311.069458 
	C335.566223,310.541321 335.608124,309.540375 335.235260,308.508026 
	C334.949615,307.717224 334.415955,307.064484 333.945953,306.377136 
	C332.902161,304.850555 331.649750,303.268921 333.172058,301.430786 
	C334.711975,299.571411 336.752014,300.128082 338.730072,300.604675 
	C341.481537,301.267700 342.799500,303.358124 343.795288,305.715302 
	C345.005646,308.580292 347.070801,309.861664 350.135284,309.235413 
	C353.005615,308.648834 355.268768,310.033844 357.688507,311.181427 
	C363.077881,313.737366 367.231995,312.918121 371.330566,308.387756 
	C367.171844,307.832458 363.421356,306.660919 359.464783,306.319397 
	C356.709686,306.081573 353.119568,306.255493 352.500610,302.794678 
	C351.856201,299.191772 354.988342,297.757385 357.916260,296.662628 
	C359.757141,295.974365 361.742859,295.442841 362.501465,293.065308 
	C352.543915,290.880585 342.559479,289.881012 332.451141,290.087280 
	C331.787445,290.100800 331.126373,290.241974 330.459717,290.249390 
	C328.256989,290.273926 326.053131,290.239197 324.727966,288.040680 
	C324.069183,286.947693 324.107025,285.768616 324.869110,284.750549 
	C326.549835,282.505341 328.709351,283.612610 330.822968,283.896942 
	C336.450378,284.654022 342.089569,285.091461 347.379517,282.304962 
	C349.777771,281.041687 352.148254,281.256409 354.636719,282.018860 
	C357.101379,282.773987 359.360992,282.762177 359.963562,279.054840 
	C361.130402,275.668976 360.189209,272.461304 361.060364,269.050201 
	C362.358704,267.006927 363.636810,267.803833 364.463196,268.828003 
	C367.264435,272.299622 371.105225,274.851288 373.481323,279.156250 
	C374.770538,281.108063 376.192688,281.487579 378.347870,280.377563 
	C376.448029,279.912842 374.486328,280.383575 373.258209,278.322266 
	C372.436432,273.849518 371.959137,269.719849 373.836517,265.361206 
	C375.896301,263.605347 378.004700,263.501160 379.590637,264.915253 
	C382.194885,267.237335 386.219971,267.123901 388.240387,268.757080 
	C393.121490,272.702698 399.821625,271.126495 404.337036,275.536804 
	C407.220612,278.353302 412.130035,276.959686 415.712372,279.749634 
	C416.002441,279.998779 416.501221,279.999268 416.750610,279.999634 
	C418.201569,281.783508 417.773132,283.070618 415.406982,283.946503 
	C414.555450,284.001221 414.111725,284.001221 413.335205,284.001221 
	C409.905792,282.468475 406.835480,283.376770 403.830627,284.244843 
	C402.041016,284.761810 400.330139,285.286011 398.485260,284.673218 
	C395.346680,283.630676 393.163025,284.296753 392.977264,288.001190 
	C392.826996,290.998871 388.793884,289.122681 388.413361,292.143768 
	C393.094757,292.467163 397.410950,294.304382 401.474854,296.389709 
	C404.416870,297.899323 407.474457,294.912323 409.997467,297.383789 
	C410.765289,298.135864 412.709656,297.666748 412.450928,299.328308 
	C412.189606,301.006317 410.588013,300.961182 409.260681,300.984253 
	C403.302063,301.087891 397.360199,300.910614 391.411591,301.911377 
	C386.512939,302.735504 385.824524,303.528015 388.198364,307.809723 
	C390.086182,311.214783 388.337708,313.993744 382.485443,314.320679 
	C378.948792,314.518250 375.805023,314.356995 372.969025,316.768921 
	C371.921112,317.660126 370.111206,315.065918 369.053986,317.673248 
	C367.579254,318.329773 366.158478,318.659546 364.368866,318.994659 
	C363.358734,316.000122 360.869812,316.875824 359.184387,317.078888 
	C352.256622,317.913727 345.261963,318.577362 338.806488,321.610046 
	C337.217041,322.356720 335.932953,323.253113 336.005676,325.619690 
z"/>
<path fill="#E7EDDD" opacity="1.000000" stroke="none" 
	d="
M101.388550,309.011230 
	C100.825775,308.445343 100.653381,307.893097 100.239731,307.169830 
	C100.014709,305.370972 98.709991,304.901917 97.299988,304.130341 
	C97.000832,302.931580 97.000443,301.865570 97.000183,300.399780 
	C99.511299,300.756104 101.717522,298.929108 104.605438,299.816925 
	C111.139343,301.825592 111.664360,307.449280 113.846344,312.652161 
	C110.967430,312.396332 107.969864,311.959717 105.306335,314.846680 
	C104.682266,314.891785 104.423195,314.702637 104.112160,314.215515 
	C103.577652,312.199036 105.221291,309.475952 101.388550,309.011230 
z"/>
<path fill="#E7EDDD" opacity="1.000000" stroke="none" 
	d="
M146.985352,324.602722 
	C140.951828,324.802643 135.552887,322.590057 130.356689,319.696594 
	C128.353592,318.581146 126.755882,316.046173 123.839142,317.789978 
	C123.345657,318.085022 122.371468,317.744781 122.415001,316.901276 
	C122.761436,310.188751 118.532272,312.974640 115.198540,313.241394 
	C115.641685,311.854126 116.404182,310.754303 116.889389,309.543335 
	C117.342514,308.412415 116.512810,306.573822 118.347298,306.251526 
	C120.077202,305.947571 121.135841,307.343842 121.773949,308.676025 
	C123.311699,311.886383 124.971222,314.206207 129.300995,313.455994 
	C131.348282,313.101227 132.859238,315.583099 134.521103,316.956635 
	C137.525803,319.440125 140.213974,322.651489 144.810852,322.065460 
	C146.215607,321.886353 146.912720,322.820526 146.985352,324.602722 
z"/>
<path fill="#40423D" opacity="1.000000" stroke="none" 
	d="
M110.646095,276.351135 
	C109.543503,275.350433 108.768669,274.500885 107.887177,273.381866 
	C108.100586,272.762390 108.400978,272.396118 108.999214,271.849213 
	C114.872917,274.619812 119.504059,279.149475 125.849968,281.428284 
	C126.184586,281.914917 126.266800,282.142303 126.135780,282.663086 
	C125.922554,282.956482 125.960793,282.974274 125.953796,282.953735 
	C119.984009,283.052185 115.565231,279.576294 110.646095,276.351135 
z"/>
<path fill="#E4EBD9" opacity="1.000000" stroke="none" 
	d="
M260.116577,321.670868 
	C260.175964,318.629120 261.648499,318.885040 263.410400,319.760620 
	C264.779175,320.440857 264.955383,321.373138 263.933746,322.485016 
	C262.490936,324.055267 261.178528,324.228027 260.116577,321.670868 
z"/>
<path fill="#E1E9D5" opacity="1.000000" stroke="none" 
	d="
M361.001343,278.752502 
	C360.749176,284.141418 359.055725,285.322815 354.042053,283.377747 
	C351.842255,282.524292 350.108734,282.237579 347.987976,283.459717 
	C342.063751,286.873779 335.740173,286.317078 329.384399,284.982025 
	C328.164154,284.725739 326.925323,283.624847 325.716797,285.027039 
	C325.112610,285.728058 324.967316,286.555206 325.334503,287.348145 
	C326.103424,289.008575 327.666931,289.083374 329.186523,288.979736 
	C332.446075,288.757446 335.801178,289.073608 338.935944,288.782440 
	C347.209564,288.014069 354.937561,291.570587 363.086395,291.022339 
	C363.879272,290.968964 364.861450,290.829071 365.331879,291.683960 
	C365.974365,292.851410 364.940521,293.519196 364.281616,294.178986 
	C362.432770,296.030151 360.873444,298.118988 357.703430,298.147522 
	C355.418701,298.168030 353.390533,300.027008 353.345703,302.233856 
	C353.291565,304.896271 356.381592,305.001251 357.924103,304.815521 
	C362.805481,304.227753 367.175049,307.843872 372.079163,306.219055 
	C372.738190,306.000702 373.448883,306.294434 373.675140,307.030762 
	C374.129395,308.508911 373.305603,309.640839 372.375824,310.586273 
	C368.694153,314.329865 362.152008,315.232697 357.134583,312.516754 
	C354.491669,311.086121 352.183624,309.770996 348.857391,310.844574 
	C346.027130,311.758118 343.703003,310.302124 342.883972,307.100220 
	C342.027985,303.753998 340.045898,301.602844 336.411041,301.242462 
	C335.349091,301.137146 334.393585,301.136047 333.710449,302.034058 
	C332.938232,303.049133 333.480560,303.893188 334.200378,304.666077 
	C334.540894,305.031677 334.916901,305.366302 335.237152,305.748230 
	C336.832031,307.650085 339.253479,309.874207 336.566528,312.083008 
	C334.159637,314.061584 330.686096,313.712097 328.188599,311.850494 
	C325.734375,310.021149 327.356445,308.063934 329.110657,306.543610 
	C329.847504,305.904968 331.023560,305.484283 330.727142,304.281219 
	C330.354675,302.769684 328.923523,302.871765 327.839264,303.045624 
	C324.990417,303.502472 322.794556,301.703583 320.269440,301.164642 
	C318.672516,300.823822 316.372742,300.106934 315.335236,302.209320 
	C314.363190,304.179016 315.391327,305.391602 317.390198,306.443726 
	C319.976807,307.805298 319.320587,310.653717 318.670929,312.724854 
	C318.100861,314.542267 315.745117,315.099976 314.018768,314.711304 
	C311.399963,314.121704 311.393799,312.195892 311.763855,309.660461 
	C312.337769,305.728607 309.074005,305.237488 306.157593,305.068970 
	C304.245453,304.958405 302.747498,306.136047 301.247070,307.239716 
	C297.078125,310.306274 294.630585,309.757996 292.218048,305.247009 
	C291.759277,304.389130 291.715027,303.136353 290.403778,303.251007 
	C289.100128,303.364929 289.088898,304.520905 289.002319,305.526367 
	C288.716248,308.848328 286.569031,310.415161 283.621918,311.246887 
	C282.836334,311.468597 281.706024,312.077179 281.371521,311.204163 
	C279.895752,307.352539 276.107727,306.814056 273.303345,304.798187 
	C270.369934,302.689606 267.783997,303.199432 264.906067,303.192657 
	C260.802063,303.183044 256.801941,304.482513 252.564392,302.612305 
	C249.664871,301.332672 246.944656,304.618530 246.935745,306.691986 
	C246.912552,312.085449 242.647125,311.797211 239.763123,312.699860 
	C236.945557,313.581787 234.033401,314.196960 231.245499,315.311615 
	C226.683395,317.135620 222.497131,315.836090 219.746368,312.066620 
	C218.763321,310.719482 219.132263,309.615753 220.022568,308.460907 
	C221.334900,306.758636 220.609970,305.738617 218.513046,305.053314 
	C231.722000,278.929352 246.343628,253.461914 261.621918,228.008926 
	C263.496246,227.840363 264.761353,228.612122 265.988922,229.502045 
	C266.971436,230.214325 267.968079,230.734146 269.110809,229.711960 
	C273.666656,225.636734 277.888977,229.730850 282.170990,230.470444 
	C284.101227,230.803833 283.566132,232.762955 282.365601,234.024109 
	C281.223999,235.223373 280.080658,236.300110 279.789429,238.134186 
	C278.739838,244.743652 278.678680,244.733948 272.003571,245.772751 
	C278.603088,248.762924 281.504822,248.656982 288.287781,246.724533 
	C296.081177,244.504211 304.108612,245.505157 312.048401,246.023041 
	C313.545166,246.120667 314.863586,247.015411 315.642975,248.873474 
	C315.623230,252.273590 312.992035,252.832901 310.983704,253.627502 
	C305.861481,255.654114 301.450287,258.913300 296.630920,261.450684 
	C294.337372,262.658234 293.690887,264.092224 296.441833,266.063812 
	C297.445953,270.385803 296.724915,274.477356 296.877197,276.556244 
	C296.394409,274.310059 297.820038,269.980652 296.133453,265.573303 
	C293.876587,263.636475 295.040558,262.467377 296.619995,261.548309 
	C307.452576,255.244797 318.415527,249.208435 330.841492,245.427063 
	C332.539429,244.878952 333.959290,244.616211 335.451660,243.549988 
	C336.001648,243.272720 336.230347,243.174530 336.819031,242.963379 
	C340.213135,242.516373 343.152069,241.217102 346.664368,242.037811 
	C352.137604,244.165512 357.331116,245.827576 362.782410,246.738022 
	C369.100739,247.793289 369.876312,249.444443 366.523712,254.756866 
	C364.977753,257.206573 365.989227,258.077972 368.176788,258.531708 
	C371.082397,259.134338 373.072205,260.528656 373.331726,264.082214 
	C373.122833,267.094299 373.518921,269.726501 373.533203,272.370361 
	C373.551514,275.759979 372.104126,275.652863 369.983215,274.074982 
	C367.851074,272.488770 366.138641,270.456543 364.370697,268.477631 
	C363.533264,267.540253 362.392090,265.607574 361.051025,268.564880 
	C360.973511,272.076202 361.006622,275.216492 361.001343,278.752502 
z"/>
<path fill="#E4EBD9" opacity="1.000000" stroke="none" 
	d="
M315.424683,250.496628 
	C314.647186,247.498062 312.490814,246.877258 310.279999,247.062103 
	C301.828796,247.768738 293.285461,245.410828 284.859436,249.561111 
	C280.141357,251.885040 274.665619,247.873383 269.409729,247.475891 
	C268.629761,247.416901 268.157318,246.393555 268.242432,245.494324 
	C268.335144,244.515259 269.074066,244.107727 269.965393,244.064056 
	C271.291199,243.999115 272.623108,243.961288 273.948792,244.010040 
	C277.504395,244.140762 279.497375,243.041214 278.166748,239.021851 
	C276.850739,235.046646 280.349518,234.032684 283.204285,231.894409 
	C279.468018,230.769440 276.026855,230.732788 273.063690,229.112366 
	C272.351593,228.722961 271.147583,228.810059 270.464233,229.887909 
	C268.263275,233.359573 268.250000,233.335464 265.028290,230.547104 
	C264.153778,229.790253 263.208954,229.114670 262.105652,228.110443 
	C264.432556,222.293182 267.842957,217.296783 271.447021,212.072128 
	C274.483337,213.314880 276.711945,213.023712 279.561859,211.290466 
	C282.419312,209.552643 286.079193,207.773560 289.729004,210.186493 
	C290.812134,210.902573 291.836884,211.004623 293.010437,210.474594 
	C298.440643,208.022079 304.069977,209.729309 309.600372,209.464783 
	C315.845673,209.166016 322.066895,211.165771 328.252502,209.414917 
	C328.572144,209.324432 328.904999,209.126266 329.210266,209.161896 
	C343.358276,210.813049 357.652740,207.393036 371.765350,210.391937 
	C373.373932,210.733765 375.036316,210.914368 376.680969,210.975418 
	C379.932465,211.096085 383.715179,209.124237 385.810669,213.541962 
	C385.981903,213.903000 387.090393,214.088348 387.664246,213.948471 
	C394.331604,212.323166 397.905121,216.617249 401.532837,221.164627 
	C399.182434,223.147339 396.367157,223.004196 393.588074,223.027283 
	C392.328888,223.037720 391.234955,223.331772 391.149597,224.884140 
	C391.084900,226.060547 391.704559,226.622711 392.817352,226.977539 
	C394.058960,227.373413 395.311188,227.889923 396.389252,228.608353 
	C397.973572,229.664154 401.780182,228.114899 401.190643,230.286118 
	C400.526428,232.732498 397.257477,234.695160 394.207367,234.911133 
	C389.896942,235.216339 385.547211,235.079346 381.218567,234.967361 
	C379.074127,234.911865 377.290192,235.388641 375.515503,237.299866 
	C369.654877,239.205032 363.855011,237.896042 357.956665,239.404175 
	C350.329590,239.650589 343.464020,241.676834 336.258240,243.771454 
	C335.954681,244.027206 336.010803,244.004730 336.027283,243.979370 
	C334.806763,245.104965 333.092224,244.780930 331.328308,245.549377 
	C327.202393,246.222305 323.793060,247.839325 320.342651,249.305725 
	C318.854614,249.938141 317.596222,251.235962 315.424683,250.496628 
z"/>
<path fill="#E4EBD9" opacity="1.000000" stroke="none" 
	d="
M126.319199,282.975769 
	C125.922554,282.956482 125.978096,282.532654 125.969833,282.319092 
	C124.615746,279.778595 126.385345,278.800110 127.906960,277.829712 
	C129.340363,276.915527 131.033157,276.844788 132.690475,276.686188 
	C134.607513,276.502716 137.065109,276.832489 137.209366,273.998688 
	C137.345200,271.330200 135.714340,269.817688 133.150848,269.113403 
	C130.084732,268.270935 127.177414,267.298950 124.243523,269.730927 
	C122.109901,271.499542 120.195213,270.340027 118.734413,268.428589 
	C117.215332,266.440857 115.709236,265.441986 112.852356,266.245178 
	C109.375793,267.222565 107.450516,263.593811 104.402397,262.072632 
	C102.076408,258.640472 102.455177,255.159653 102.889542,251.310669 
	C103.367195,249.768265 104.157700,248.831985 104.973892,247.520966 
	C106.001205,246.228119 106.643280,245.141663 106.581833,243.419098 
	C106.816742,242.904617 106.963837,242.722092 107.419167,242.357437 
	C108.920303,241.731705 110.118584,241.742355 111.640350,242.299500 
	C115.803574,245.828339 113.427551,250.264923 113.973534,254.195999 
	C114.040939,254.681335 113.984764,255.189606 113.880730,255.679901 
	C114.253632,255.015381 113.893425,254.294083 114.068298,253.290955 
	C114.302025,252.012711 114.914162,251.111923 114.422302,249.765900 
	C114.301651,249.033401 114.329277,248.607239 114.529419,247.870346 
	C115.467827,246.516876 115.809067,245.205170 116.591263,244.135361 
	C116.861961,243.765091 117.781799,243.558807 117.355614,243.118408 
	C117.111366,242.866028 116.171295,243.433716 115.194534,243.712524 
	C114.343346,243.781418 113.866302,243.689346 113.094208,243.307800 
	C112.658386,242.886261 112.532257,242.672775 112.265091,242.115784 
	C111.922585,240.749664 111.893814,239.515076 112.658005,238.942062 
	C117.117188,235.598328 120.542854,231.019089 126.051186,228.886108 
	C133.309464,226.075485 140.478546,225.497559 147.895370,227.790298 
	C151.061020,228.768890 154.349380,228.318741 157.239731,227.333313 
	C161.943115,225.729797 167.062225,226.282364 171.623856,223.748032 
	C174.805206,221.980560 176.425598,223.801529 176.995712,229.173569 
	C180.650757,228.005524 184.174210,226.848129 186.607071,223.636597 
	C188.402023,221.267105 190.844498,220.152771 193.607300,221.412506 
	C196.711136,222.827667 195.753983,225.302643 194.801865,227.805634 
	C193.593414,230.982513 196.282272,230.774933 197.834702,230.416245 
	C202.565857,229.323059 207.392944,229.474503 212.155365,228.894379 
	C216.935379,228.312149 221.706955,227.539688 226.555145,228.314331 
	C228.210754,228.578873 229.763672,228.547546 230.888046,226.753357 
	C233.631454,222.375549 233.705261,222.417938 237.400375,225.801071 
	C237.766235,226.136047 238.098938,226.511017 238.589386,226.655655 
	C238.735031,226.698608 238.910233,226.641449 239.496414,226.600540 
	C238.054703,224.413528 235.713425,222.268448 238.686249,219.829971 
	C240.850357,218.054840 245.272247,218.313370 247.261200,220.867599 
	C249.305298,223.492661 251.973999,224.972107 254.956406,226.756866 
	C255.094971,227.564331 255.023132,228.074097 254.772415,228.771179 
	C245.916443,228.840744 237.838730,232.138397 229.431091,233.573929 
	C226.673950,234.044662 224.267365,236.836777 221.807877,238.708450 
	C219.260010,240.647369 217.388229,240.422089 215.764938,237.528381 
	C212.956894,232.522736 207.533600,231.020187 203.149597,234.711136 
	C199.535522,237.753860 195.104599,237.999908 191.546860,237.540039 
	C187.222092,236.981018 186.413040,238.962143 185.115692,242.075409 
	C184.842209,242.545792 184.663681,242.649002 184.207886,242.881516 
	C182.999863,244.688828 182.999863,244.688828 186.675491,247.440247 
	C187.256973,249.045578 187.193024,250.284866 186.231567,251.734558 
	C182.495316,251.926132 178.747299,249.980545 176.200623,254.475006 
	C175.418030,255.856186 174.114288,253.861710 172.885040,252.900696 
	C172.613953,251.489502 171.981537,250.408066 171.899139,248.871933 
	C171.989868,247.630585 172.249176,246.761993 172.261612,245.539932 
	C171.706650,242.988174 169.402878,243.458420 167.800201,242.236389 
	C166.703308,240.615097 166.832214,239.155823 167.140808,237.650528 
	C167.452118,236.131943 168.965561,234.404938 167.033356,233.127792 
	C165.265686,231.959427 162.772507,231.737671 161.369446,233.118866 
	C156.831512,237.586105 152.570435,235.910172 147.714432,233.716064 
	C142.638428,231.422546 138.110107,235.093140 133.425308,236.391876 
	C131.389389,236.956284 129.555939,238.183075 126.517464,237.010468 
	C128.817459,239.053528 129.838516,241.211258 128.522278,242.511200 
	C124.688499,246.297424 127.198517,251.063004 126.061897,255.243027 
	C125.345581,257.877350 126.356567,260.825928 130.464722,259.607605 
	C133.024979,258.848358 135.017136,260.078674 136.894363,261.508759 
	C139.597977,263.568359 142.201019,263.796661 145.148209,261.852142 
	C148.229279,259.819336 151.836655,258.904572 155.338730,257.843262 
	C159.920319,256.454834 160.923523,257.141052 162.020828,262.440613 
	C164.058640,261.133850 164.997986,258.843933 167.298431,257.580780 
	C169.517456,257.542145 171.367096,257.452057 173.562286,257.760620 
	C175.360779,258.725922 176.828506,259.456818 178.259338,260.253906 
	C180.016006,261.232513 180.828964,263.320160 179.383484,264.303619 
	C175.752380,266.774139 174.590714,271.002167 171.650070,273.889954 
	C169.954773,275.554779 168.455048,276.676392 166.127594,274.804199 
	C164.393417,273.409241 162.439133,274.209930 160.454437,274.664703 
	C156.307892,275.614807 152.254852,277.521423 148.439148,278.337555 
	C143.835403,279.322205 140.214630,281.560608 136.088211,283.557800 
	C133.594894,285.658417 131.314804,283.626007 128.626587,283.378601 
	C127.770546,283.085846 127.243195,283.040466 126.319199,282.975769 
z"/>
<path fill="#E4ECD9" opacity="1.000000" stroke="none" 
	d="
M106.233978,246.767365 
	C105.961273,248.263443 106.037773,249.579010 104.053711,250.066116 
	C101.440125,254.378799 102.447594,258.809967 102.966660,263.193878 
	C103.120628,264.494263 103.836403,265.705688 103.637184,267.438416 
	C99.785164,266.381683 95.046394,267.709839 92.368584,263.198456 
	C91.006546,260.903748 91.038872,259.530212 92.815163,257.590576 
	C95.483536,254.676758 97.539825,251.657486 96.029869,247.030502 
	C95.505127,245.422516 97.368576,241.817474 99.078659,240.929245 
	C103.948700,238.399719 107.183517,232.486557 113.938622,233.592850 
	C115.646591,233.872574 117.371803,231.919205 117.457916,230.570831 
	C117.791435,225.348434 122.068382,225.148361 124.963730,225.592804 
	C128.496689,226.135132 130.913483,223.858704 133.997025,223.773682 
	C134.786087,223.751907 135.575745,223.063599 135.452576,222.093353 
	C135.314148,221.003036 134.307907,221.145844 133.516907,221.014282 
	C131.252472,220.637589 128.328430,222.121689 127.054825,218.383148 
	C127.000305,218.000610 127.498520,217.998718 127.747581,217.998138 
	C132.946045,217.773483 137.883453,218.284363 142.860428,217.206421 
	C145.620270,216.608688 149.324265,215.665253 151.004547,219.788422 
	C151.257492,220.409103 152.131241,220.913986 152.581848,220.213867 
	C156.862671,213.562927 163.735687,216.526337 169.310638,216.266434 
	C176.578323,215.927612 184.207764,215.757156 191.073624,219.394775 
	C191.929672,219.848343 192.743179,219.730438 193.329193,219.062286 
	C195.580276,216.495636 198.756302,218.266022 200.941650,217.532883 
	C207.544037,215.317947 214.439804,218.589691 220.804779,215.674500 
	C221.811249,215.213501 223.165070,214.840118 224.156921,215.125687 
	C231.201416,217.153915 238.189468,214.924561 245.190018,215.073502 
	C250.731979,215.191406 256.264404,215.757019 262.248230,216.187057 
	C260.403534,219.770721 258.111694,223.291153 255.493347,226.933075 
	C251.699448,226.847000 248.625275,225.931168 246.979767,222.473648 
	C245.735855,219.859940 243.453598,219.813934 241.041412,220.026184 
	C239.578781,220.154892 238.399414,220.681763 238.204285,222.279358 
	C238.039230,223.630646 238.849854,224.441086 240.092606,224.835892 
	C241.131119,225.165817 242.707443,224.858994 242.745773,226.493530 
	C242.782745,228.069122 241.166000,227.924316 240.192566,228.408356 
	C238.880020,229.060989 237.550186,229.158508 236.621445,227.844894 
	C235.966125,226.918045 235.689224,225.719528 235.014908,224.812073 
	C234.712326,224.404922 233.838852,224.235580 233.245880,224.275650 
	C232.419647,224.331451 232.280945,225.036118 232.458603,225.762390 
	C233.534332,230.160599 230.221375,230.137344 227.718002,229.907639 
	C218.197281,229.034012 208.879715,230.348709 199.550629,231.878922 
	C198.250092,232.092239 196.894043,231.974243 195.563446,231.995819 
	C191.763947,232.057465 191.014343,230.393372 193.165115,227.437180 
	C194.375793,225.773132 196.180634,224.096466 193.558823,222.535400 
	C191.588806,221.362442 189.130707,221.505371 188.051422,224.037888 
	C185.965073,228.933456 180.167984,228.334488 177.075729,231.717392 
	C176.572327,232.268127 175.482025,231.795776 174.853775,231.135544 
	C174.179947,230.427399 174.171402,229.629211 174.734680,228.892746 
	C175.839310,227.448425 176.641647,225.937454 174.797623,224.589249 
	C172.974472,223.256332 171.854111,225.337524 170.380081,225.726318 
	C163.133713,227.637573 155.758759,230.833359 148.303299,229.032578 
	C138.790054,226.734741 129.861664,227.361908 122.066544,232.813431 
	C118.881386,235.040985 114.843666,237.171646 112.946075,241.571899 
	C111.289795,243.076904 109.433868,242.173096 107.438202,242.802124 
	C107.150566,243.052673 107.062340,243.499649 107.029945,243.725128 
	C106.975830,244.840424 107.014282,245.742798 106.233978,246.767365 
z"/>
<path fill="#E4ECD9" opacity="1.000000" stroke="none" 
	d="
M372.307312,265.115601 
	C372.366852,261.482697 371.110596,259.726562 367.534729,259.973633 
	C365.472839,260.116150 363.978790,259.064301 363.281219,257.175385 
	C362.641663,255.443481 364.406281,255.048767 365.263550,254.144440 
	C366.359985,252.987823 368.339722,252.085648 367.654419,250.160355 
	C367.031647,248.410767 364.943909,248.303955 363.406830,248.135406 
	C357.747681,247.514816 352.357666,246.121277 347.130280,243.104126 
	C348.700500,238.285782 353.003723,239.979141 356.639526,239.005463 
	C363.951935,238.220505 370.798340,237.402908 377.748199,238.972214 
	C383.905304,240.362534 390.027283,241.673935 395.797546,245.261261 
	C405.714233,251.844620 408.594513,261.987122 410.921356,272.586517 
	C413.015686,269.983398 410.839691,266.949615 412.608582,264.266174 
	C416.182831,263.952789 418.956787,266.014801 422.333496,266.387115 
	C425.192291,266.702332 422.474518,269.936279 422.859314,271.878662 
	C423.215363,273.676056 422.198883,274.781555 419.812256,274.534851 
	C416.601257,274.202972 413.974152,275.035706 415.959686,279.634155 
	C410.298981,278.880707 404.138672,279.072754 399.809906,274.068329 
	C399.274841,273.449738 397.807220,272.971558 397.122070,273.260071 
	C393.439453,274.810913 391.101013,273.489929 389.459381,270.186829 
	C389.390472,270.048187 389.183014,269.834625 389.115448,269.859619 
	C383.341461,271.996399 380.715851,265.697876 375.647308,264.959595 
	C374.493256,265.578094 373.616180,265.705292 372.307312,265.115601 
z"/>
<path fill="#1F1F1D" opacity="1.000000" stroke="none" 
	d="
M412.630432,263.721741 
	C412.993561,265.972687 412.840088,268.027405 413.376526,269.882660 
	C414.012512,272.082123 413.687134,274.240601 411.749329,274.701996 
	C409.227234,275.302490 409.183044,272.596588 408.802429,270.874146 
	C407.752167,266.121521 406.905731,261.405121 404.687500,256.897919 
	C402.638702,252.735016 399.720642,249.678589 396.031738,246.605270 
	C396.243591,246.076126 396.669373,245.852539 397.816467,245.639771 
	C398.537781,245.650589 398.875427,245.807861 399.046387,245.881744 
	C399.290833,246.123093 399.364380,246.290543 399.699768,246.539734 
	C400.132477,246.669693 400.303314,246.717911 400.739166,246.791489 
	C406.331329,251.311569 410.425049,256.653381 412.630432,263.721741 
z"/>
<path fill="#E4ECD9" opacity="1.000000" stroke="none" 
	d="
M415.268921,284.279236 
	C415.736145,282.940125 417.257477,282.350250 416.995361,280.343079 
	C421.460022,280.773621 425.920074,281.547241 431.042084,282.435699 
	C425.803375,286.525513 420.709290,285.840363 415.268921,284.279236 
z"/>
<path fill="#EAEFE0" opacity="1.000000" stroke="none" 
	d="
M434.634460,285.957550 
	C435.274719,288.337128 434.486908,290.391083 433.149628,292.668823 
	C432.505768,292.739594 432.010315,292.479187 431.256226,292.110596 
	C430.831024,292.129303 430.664520,292.256134 430.249603,292.190887 
	C430.048706,289.637421 427.513489,290.437714 426.336273,288.953217 
	C428.642670,286.914795 430.329773,283.811737 434.634460,285.957550 
z"/>
<path fill="#E4ECD9" opacity="1.000000" stroke="none" 
	d="
M429.695801,292.045685 
	C430.001221,291.998779 430.499420,292.000519 430.748474,292.001465 
	C430.844055,293.224976 430.338104,294.336578 428.954529,293.651276 
	C427.875488,293.116821 428.583069,292.445618 429.695801,292.045685 
z"/>
<path fill="#40423D" opacity="1.000000" stroke="none" 
	d="
M398.334045,245.350830 
	C398.083740,245.755707 397.629700,245.860825 396.496735,246.132828 
	C383.910095,239.813293 371.201538,238.031464 357.455811,239.820618 
	C356.669708,239.495514 356.518219,239.109894 356.799591,238.394562 
	C362.783142,237.398895 368.553040,237.025543 374.735901,237.603485 
	C383.209076,238.755127 391.122437,240.519012 398.334045,245.350830 
z"/>
<path fill="#E7EDDD" opacity="1.000000" stroke="none" 
	d="
M399.872314,246.475708 
	C399.961639,246.621460 399.500305,246.785294 399.500305,246.785294 
	C399.500305,246.785294 399.152435,246.440842 399.184875,246.198242 
	C399.438110,246.031693 399.626648,246.156464 399.872314,246.475708 
z"/>
<path fill="#1F1F1D" opacity="1.000000" stroke="none" 
	d="
M103.767929,268.071777 
	C101.507248,263.413696 100.505974,258.821472 100.911247,253.978516 
	C101.040398,252.435211 100.627335,250.542175 103.297104,250.102661 
	C105.266953,253.723465 103.398483,257.635162 104.910675,261.619690 
	C107.051521,264.616150 108.501610,267.452942 108.622742,271.181702 
	C108.381508,271.814697 108.263329,272.059479 107.860237,272.595947 
	C105.771942,271.852753 105.123230,269.911804 103.767929,268.071777 
z"/>
<path fill="#E4ECD9" opacity="1.000000" stroke="none" 
	d="
M93.125839,248.702057 
	C91.933784,248.999191 90.867561,248.999008 89.401588,248.998505 
	C89.243057,247.040497 90.155434,245.327179 92.223961,245.430435 
	C93.858978,245.512054 94.046463,247.001129 93.125839,248.702057 
z"/>
<path fill="#E4ECD9" opacity="1.000000" stroke="none" 
	d="
M88.054565,251.332703 
	C88.751266,251.001617 89.500443,251.001404 90.624191,251.001221 
	C90.482521,253.176392 89.567497,253.610641 88.054565,251.332703 
z"/>
<path fill="#1F1F1D" opacity="1.000000" stroke="none" 
	d="
M109.099640,271.564850 
	C108.838989,272.189270 108.598282,272.523590 108.069046,272.985168 
	C107.780510,273.112427 107.585884,273.004486 107.580597,272.946045 
	C107.631157,272.543427 107.687004,272.199249 107.936829,271.369324 
	C108.540405,270.811798 108.869987,270.942200 109.099640,271.564850 
z"/>
<path fill="#1F1F1D" opacity="1.000000" stroke="none" 
	d="
M186.038620,252.410538 
	C186.003006,250.606003 186.063919,249.213455 186.033279,247.411163 
	C185.456955,246.413483 185.125397,245.760376 185.125549,244.611572 
	C185.264725,244.008774 185.361893,243.778458 185.728302,243.287186 
	C186.466904,242.964844 186.936234,242.903458 187.707001,243.038589 
	C188.198044,243.379623 188.387665,243.524155 188.452576,244.003876 
	C188.422455,245.776016 188.517029,247.212967 188.723419,248.994598 
	C189.261169,249.580780 189.456741,249.945709 189.195343,250.689499 
	C187.027725,256.276550 189.620621,257.730194 194.441315,257.683960 
	C191.086563,257.683960 187.731812,257.683960 183.580414,257.683960 
	C186.779037,256.783295 186.124100,254.684830 186.038620,252.410538 
z"/>
<path fill="#0D0E0D" opacity="1.000000" stroke="none" 
	d="
M173.935989,257.615784 
	C171.892624,257.992645 169.875839,258.019592 167.431702,258.115845 
	C164.093460,259.474762 162.383087,259.041718 163.096130,255.366928 
	C163.733017,252.084595 163.309647,248.753479 163.728561,245.039108 
	C163.898483,244.346802 163.993118,244.076416 164.320251,243.443893 
	C164.991501,242.680130 165.508072,242.469528 166.517822,242.550964 
	C167.138901,242.846848 167.344879,243.042404 167.747803,243.614792 
	C168.402481,245.349304 168.386627,246.751266 168.283493,248.570343 
	C168.105988,249.527023 167.901749,250.039124 167.411041,250.877075 
	C165.443787,257.741058 170.399384,256.723236 173.935989,257.615784 
z"/>
<path fill="#40423D" opacity="1.000000" stroke="none" 
	d="
M135.951324,284.757812 
	C143.367340,285.200653 150.540390,284.787506 157.743027,284.499878 
	C150.920685,286.679443 143.926529,286.200714 136.492950,285.897125 
	C135.925278,285.563629 135.816666,285.319763 135.951324,284.757812 
z"/>
<path fill="#545750" opacity="1.000000" stroke="none" 
	d="
M136.164627,284.301208 
	C136.169785,284.667908 136.144974,284.896118 136.077026,285.465881 
	C133.416931,285.452118 130.615921,285.794342 128.364456,283.466370 
	C130.613113,283.413025 132.928345,283.694824 135.633301,283.939423 
	C136.023056,283.902222 136.134659,284.162720 136.164627,284.301208 
z"/>
<path fill="#545750" opacity="1.000000" stroke="none" 
	d="
M167.557404,251.181763 
	C167.151291,250.697235 167.100067,250.160416 167.102890,249.222839 
	C168.674957,247.565521 170.432571,247.454224 172.597412,247.965363 
	C172.884949,249.444443 172.850677,250.709351 172.696075,252.338242 
	C171.670227,250.253677 169.654831,251.096085 167.557404,251.181763 
z"/>
<path fill="#40423D" opacity="1.000000" stroke="none" 
	d="
M208.234924,268.224609 
	C205.925171,269.844604 203.922333,271.255035 200.073074,270.974487 
	C203.480560,269.262878 205.867966,268.059753 208.266769,266.879822 
	C208.330780,266.848328 208.618134,267.058929 208.628464,267.172363 
	C208.653336,267.445770 208.575577,267.728485 208.234924,268.224609 
z"/>
<path fill="#545750" opacity="1.000000" stroke="none" 
	d="
M189.361374,250.966919 
	C188.906036,250.589386 188.843109,250.233917 188.807693,249.608856 
	C189.163284,249.341522 189.535049,249.242950 189.812103,249.362991 
	C191.224686,249.974976 193.755432,247.873077 193.864410,249.567307 
	C194.043015,252.344391 191.178696,250.444717 189.361374,250.966919 
z"/>
<path fill="#545750" opacity="1.000000" stroke="none" 
	d="
M188.587082,244.070099 
	C188.229172,244.168228 188.130447,243.997391 188.020065,243.530823 
	C189.520523,242.481430 191.113876,242.629013 193.510513,242.861389 
	C191.459244,243.274673 190.152756,243.537903 188.587082,244.070099 
z"/>
<path fill="#545750" opacity="1.000000" stroke="none" 
	d="
M185.855484,242.895874 
	C185.995850,243.199829 185.994110,243.373428 185.974213,243.806808 
	C184.740570,244.760696 184.001831,244.431870 184.082825,242.824112 
	C184.408066,242.606247 184.745758,242.639542 184.883240,242.541077 
	C185.216873,242.624832 185.447754,242.732468 185.855484,242.895874 
z"/>
<path fill="#0D0E0D" opacity="1.000000" stroke="none" 
	d="
M372.020111,265.235443 
	C372.782593,264.849426 373.613831,264.880798 374.861572,264.926270 
	C372.950989,269.152039 374.608185,273.710632 374.208191,278.539673 
	C374.296631,279.486816 374.086426,279.859558 373.349792,280.042542 
	C369.592377,276.062958 366.168854,272.171509 362.432983,268.176849 
	C361.752350,268.384369 361.331970,268.492371 360.624207,268.145752 
	C360.505524,266.975647 359.419525,265.868073 360.348358,265.204163 
	C361.652832,264.271759 362.783875,265.123474 363.725616,266.164948 
	C366.450531,269.178497 369.189392,272.179504 372.547119,275.872101 
	C372.876343,271.835815 373.532623,268.733704 372.020111,265.235443 
z"/>
<path fill="#E1E9D5" opacity="1.000000" stroke="none" 
	d="
M393.034637,295.195526 
	C395.283997,296.424713 398.142365,295.444122 399.664795,298.355927 
	C395.587036,299.631683 391.686859,299.959839 387.660431,299.006897 
	C386.747711,298.790894 385.398468,299.095001 385.516449,297.657806 
	C385.616821,296.434570 386.693848,295.305695 387.817200,295.416595 
	C389.489685,295.581726 391.065094,295.533813 393.034637,295.195526 
z"/>
<path fill="#E1E9D5" opacity="1.000000" stroke="none" 
	d="
M390.661621,278.628174 
	C392.888458,277.554565 394.609253,278.373230 396.331360,278.903229 
	C397.567657,279.283630 399.948578,278.372192 399.566467,280.756042 
	C399.253418,282.709229 397.117035,281.853546 395.745270,281.979309 
	C392.575897,282.269867 389.542725,281.670990 386.563873,280.374481 
	C387.182343,278.175446 389.132050,279.417511 390.661621,278.628174 
z"/>
<path fill="#E1E9D5" opacity="1.000000" stroke="none" 
	d="
M373.054932,280.319519 
	C373.351929,279.808319 373.687988,279.662262 374.153320,279.255951 
	C376.658752,278.887360 379.034882,278.779022 381.410980,278.670685 
	C378.851715,280.356628 377.326416,286.449982 373.054932,280.319519 
z"/>
<path fill="#40423D" opacity="1.000000" stroke="none" 
	d="
M360.260620,268.338379 
	C360.776703,267.904236 361.164520,267.914642 361.836487,267.999329 
	C361.994232,271.613007 361.867798,275.152344 361.372040,278.919983 
	C359.014282,275.835754 360.543091,272.227905 360.260620,268.338379 
z"/>
<path fill="#E4ECD9" opacity="1.000000" stroke="none" 
	d="
M381.491699,307.619324 
	C380.775482,308.446747 380.144043,309.070862 379.426239,308.190247 
	C379.003448,307.671600 379.030731,306.944611 379.624268,306.541199 
	C380.588226,305.885986 381.367249,306.021606 381.491699,307.619324 
z"/>
<path fill="#E1E9D5" opacity="1.000000" stroke="none" 
	d="
M403.711914,280.484863 
	C404.590302,280.114136 405.224976,280.130890 405.467163,280.891937 
	C405.532776,281.098175 405.290009,281.595001 405.091797,281.659302 
	C404.247498,281.933105 403.487854,281.900055 403.711914,280.484863 
z"/>
<path fill="#E1E9D5" opacity="1.000000" stroke="none" 
	d="
M377.621979,286.548218 
	C378.409088,286.325470 378.692780,286.601807 378.572510,287.211945 
	C378.547485,287.338867 378.367920,287.509949 378.239777,287.529266 
	C377.623077,287.622162 377.364319,287.322479 377.621979,286.548218 
z"/>
<path fill="#E1E9D5" opacity="1.000000" stroke="none" 
	d="
M371.412964,297.954895 
	C371.804718,297.236237 372.199951,297.229340 372.549866,297.740051 
	C372.623230,297.847076 372.620850,298.095428 372.545013,298.200012 
	C372.181702,298.700684 371.786682,298.682037 371.412964,297.954895 
z"/>
<path fill="#E4ECD9" opacity="1.000000" stroke="none" 
	d="
M109.377228,272.015045 
	C109.028198,271.517151 108.859444,271.254822 108.352127,270.975769 
	C107.123833,268.164642 105.063721,265.851257 105.038834,262.383636 
	C106.887474,261.802032 108.252342,262.594391 109.416847,263.908020 
	C110.900978,265.582245 111.985603,266.244385 114.188728,264.173676 
	C116.652054,261.858429 118.001717,265.343811 118.909698,266.676453 
	C120.960892,269.686951 122.282501,270.412994 125.227318,267.472290 
	C128.666275,264.038086 132.283630,268.110443 135.823883,268.471252 
	C138.040039,268.697144 138.901047,272.065704 138.951950,274.643585 
	C139.010956,277.632874 136.968033,278.010803 134.583069,278.015594 
	C131.335037,278.022095 127.793381,277.411163 126.014557,281.729340 
	C119.497505,280.493103 114.006798,277.284302 109.377228,272.015045 
z"/>
<path fill="#0D0E0D" opacity="1.000000" stroke="none" 
	d="
M271.006104,279.568298 
	C265.053558,283.622742 260.327332,284.328583 257.804413,281.466278 
	C253.820892,276.946930 256.855164,272.679657 258.955170,268.664001 
	C261.774139,263.273499 265.820038,258.884155 271.344421,256.114594 
	C274.755920,254.404282 278.788818,253.914490 280.426483,257.814667 
	C282.058807,261.702240 278.799377,264.222839 275.522705,266.326324 
	C275.300568,265.580780 275.071411,265.241669 275.158539,265.037476 
	C276.022339,263.013092 278.788269,260.714172 276.676575,258.927521 
	C274.822388,257.358765 272.539764,259.948639 270.772583,261.292999 
	C267.006500,264.158081 264.222870,267.895844 262.253296,272.154724 
	C261.113708,274.618988 259.235687,277.533569 261.790802,279.933289 
	C264.172638,282.170288 266.756012,280.172180 269.479309,278.975952 
	C270.325439,278.666321 270.721741,278.779358 271.006104,279.568298 
z"/>
<path fill="#40423D" opacity="1.000000" stroke="none" 
	d="
M314.852478,250.543121 
	C320.070221,248.676712 324.490479,245.628113 330.074097,244.601456 
	C331.048340,244.465302 331.551361,244.605316 331.958801,245.479095 
	C319.026581,249.721512 307.680756,257.016815 295.496826,262.468018 
	C294.210022,263.043762 294.314270,263.825958 295.598297,264.894318 
	C296.097107,265.279297 296.208252,265.466125 296.108032,265.901306 
	C293.499786,263.538940 294.418488,261.525177 297.148438,260.046875 
	C302.942780,256.909180 308.790253,253.869690 314.852478,250.543121 
z"/>
<path fill="#1F1F1D" opacity="1.000000" stroke="none" 
	d="
M330.477539,271.449768 
	C331.680267,274.369354 332.079559,277.224121 334.451477,280.039825 
	C331.718781,279.885620 329.352631,281.433563 329.845428,276.726562 
	C330.311279,272.277649 325.845154,273.603729 322.843750,272.905060 
	C323.269379,272.079376 323.590820,271.586121 323.789459,271.047607 
	C324.606445,268.833160 324.415009,265.095978 327.036072,265.106842 
	C329.708679,265.117920 329.185730,269.033508 330.477539,271.449768 
z"/>
<path fill="#40423D" opacity="1.000000" stroke="none" 
	d="
M345.170898,277.014862 
	C345.145935,273.202850 345.249237,269.872742 345.005219,266.568298 
	C344.912781,265.316864 344.880096,264.707458 346.275940,264.677612 
	C347.644897,264.648376 348.211456,264.802307 348.057220,266.609161 
	C347.733551,270.400696 347.797211,274.246429 348.014252,278.052063 
	C348.096008,279.485870 348.110535,280.115509 346.500183,280.135620 
	C344.122864,280.165314 345.003357,278.685547 345.170898,277.014862 
z"/>
<path fill="#545750" opacity="1.000000" stroke="none" 
	d="
M356.603821,238.086029 
	C357.022949,238.514114 357.022583,238.881226 357.026184,239.523712 
	C353.763184,240.577927 350.272705,240.406342 347.075012,242.451263 
	C343.551849,243.260468 340.175629,243.723587 336.377075,244.106964 
	C336.000214,242.725403 336.563629,242.230743 337.954712,241.875473 
	C343.981781,240.336182 349.978210,238.702347 356.603821,238.086029 
z"/>
<path fill="#1F1F1D" opacity="1.000000" stroke="none" 
	d="
M271.317719,279.883118 
	C270.747253,279.672211 270.523926,279.415436 270.070801,279.037476 
	C274.990295,275.512909 280.139526,272.109467 285.288727,268.706055 
	C285.555420,269.085175 285.822083,269.464294 286.088776,269.843414 
	C281.743561,273.778503 276.699768,276.802094 271.317719,279.883118 
z"/>
<path fill="#0D0E0D" opacity="1.000000" stroke="none" 
	d="
M309.021729,270.904541 
	C309.022827,273.186707 308.519562,275.192627 309.123138,276.776794 
	C310.683105,280.871094 308.158539,280.104797 305.864075,279.886993 
	C308.074585,276.189301 305.796906,272.088074 306.964996,268.350372 
	C307.320404,267.213074 305.211456,264.988678 307.931854,265.020020 
	C310.527954,265.049957 308.416656,267.334747 308.977661,268.479309 
	C309.238312,269.011017 309.021820,269.776611 309.021729,270.904541 
z"/>
<path fill="#0D0E0D" opacity="1.000000" stroke="none" 
	d="
M295.909424,266.601715 
	C295.933899,265.975311 295.971191,265.800995 295.997192,265.359558 
	C297.836029,264.517303 298.141724,265.274139 298.107147,267.048706 
	C298.030487,270.983826 298.492676,274.936981 298.288269,278.859528 
	C298.141876,281.669006 296.190063,279.164551 295.198914,280.031830 
	C296.515320,275.436218 295.667145,271.210632 295.909424,266.601715 
z"/>
<path fill="#545750" opacity="1.000000" stroke="none" 
	d="
M332.295166,245.902832 
	C331.646942,245.586670 331.343201,245.274094 330.748779,244.799805 
	C331.967255,243.161163 333.712128,245.150558 335.654205,244.132599 
	C334.909027,244.604813 333.774323,245.255600 332.295166,245.902832 
z"/>
<path fill="#E1E9D5" opacity="1.000000" stroke="none" 
	d="
M314.085632,240.187439 
	C316.264862,240.629288 315.807678,241.577835 314.777100,242.439606 
	C314.157776,242.957535 313.180023,243.211517 312.657410,242.399048 
	C311.929199,241.267029 312.939240,240.739700 314.085632,240.187439 
z"/>
<path fill="#E0E8D4" opacity="1.000000" stroke="none" 
	d="
M164.723923,243.951706 
	C164.551605,248.448059 166.033615,252.811096 164.134964,257.141937 
	C163.529205,258.523682 165.562332,257.605499 166.632935,258.112000 
	C166.948669,259.876068 165.782913,260.940186 164.619064,261.813782 
	C163.199936,262.878967 163.009369,266.022675 161.004959,265.308136 
	C158.874939,264.548828 160.515442,262.202515 160.582489,260.500519 
	C160.675552,258.138428 159.016312,257.634827 157.212158,258.487335 
	C152.911469,260.519501 148.019394,260.983643 144.084518,264.124481 
	C141.267380,266.373108 138.424194,264.568359 136.042816,262.526642 
	C134.069580,260.834808 132.427475,259.766113 129.503433,261.451874 
	C126.449699,263.212341 123.531006,259.746307 124.281784,255.017197 
	C124.735649,252.158249 126.348259,249.480484 124.170959,246.640900 
	C123.720772,246.053772 124.133179,245.082428 124.750069,244.389893 
	C129.032135,239.582748 129.019592,239.553436 123.471558,237.095963 
	C123.840500,236.743454 124.199936,236.145645 124.463669,236.185257 
	C130.938141,237.157410 136.403107,233.848495 142.096146,231.827850 
	C145.482040,230.626068 147.997742,231.974121 150.487610,233.382339 
	C153.887711,235.305374 156.524719,236.138840 159.527939,232.455444 
	C161.806290,229.661087 165.447906,230.497284 168.283096,231.823547 
	C171.607346,233.378616 169.216248,235.587830 168.406235,237.642670 
	C167.942200,238.819794 168.112778,240.247116 167.995850,241.998718 
	C167.860443,242.614960 167.726807,242.794250 167.296295,243.129608 
	C166.565308,243.141769 166.131226,242.997864 165.348526,242.928741 
	C164.610504,243.119492 164.462448,243.375397 164.723923,243.951706 
z"/>
<path fill="#0D0E0D" opacity="1.000000" stroke="none" 
	d="
M115.506203,247.587677 
	C115.258743,248.450653 115.205536,248.893845 115.231857,249.664703 
	C115.530319,250.420609 115.622574,250.874619 115.449936,251.680786 
	C114.895027,253.926956 115.125732,255.805954 116.008904,258.366547 
	C114.355492,257.349518 111.298622,260.139648 112.706192,255.223999 
	C113.688171,251.794617 113.959557,247.524612 112.069069,243.381897 
	C112.073502,242.829254 112.224457,242.678589 112.691711,242.575806 
	C113.465492,242.686661 113.922974,242.749649 114.728851,242.801651 
	C116.273674,244.108978 115.999016,245.636749 115.506203,247.587677 
z"/>
<path fill="#E0E8D4" opacity="1.000000" stroke="none" 
	d="
M173.073074,247.820618 
	C171.368637,249.192230 169.723877,249.680069 167.520691,248.952545 
	C167.151306,247.511459 167.145676,246.200851 167.116302,244.497650 
	C169.035431,242.420792 170.961426,242.782806 173.243210,244.313324 
	C173.944107,245.528839 173.770020,246.518738 173.073074,247.820618 
z"/>
<path fill="#E0E8D4" opacity="1.000000" stroke="none" 
	d="
M115.648285,247.904053 
	C115.257607,246.558640 115.203255,245.109833 115.113068,243.225830 
	C117.184914,241.287613 119.273804,242.138397 121.572151,242.753830 
	C118.797722,243.655640 116.882965,245.176956 115.648285,247.904053 
z"/>
<path fill="#E0E8D4" opacity="1.000000" stroke="none" 
	d="
M184.209595,242.302017 
	C184.782761,243.038345 185.157455,243.470459 185.744110,243.984558 
	C186.015396,244.805099 186.074722,245.543625 186.037872,246.641785 
	C183.926727,246.874268 181.312057,247.486435 181.247971,244.347977 
	C181.222107,243.080048 181.481232,240.865616 184.209595,242.302017 
z"/>
<path fill="#545750" opacity="1.000000" stroke="none" 
	d="
M173.330139,244.355682 
	C171.756058,243.466629 169.832779,242.944778 167.413513,243.853729 
	C167.092560,244.105072 166.902588,243.711670 166.950989,243.498688 
	C167.129272,242.989899 167.352417,242.809067 167.831451,242.589432 
	C169.679230,243.039444 172.009674,241.831512 173.330139,244.355682 
z"/>
<path fill="#E0E8D4" opacity="1.000000" stroke="none" 
	d="
M112.996994,242.454254 
	C112.830322,242.692841 112.652634,242.762024 112.198746,242.905548 
	C110.592804,242.995728 109.263054,243.011536 107.541931,243.040009 
	C108.477852,241.167328 110.461472,242.312164 112.518044,241.964417 
	C112.911911,241.953430 112.985970,242.284821 112.996994,242.454254 
z"/>
<path fill="#E0E8D4" opacity="1.000000" stroke="none" 
	d="
M106.331390,246.961899 
	C106.165558,246.138763 106.323708,245.264282 106.739708,244.170197 
	C108.243355,245.094467 108.392883,246.111572 106.331390,246.961899 
z"/>
<path fill="#E0E8D4" opacity="1.000000" stroke="none" 
	d="
M220.045181,232.413025 
	C220.763596,232.804703 220.770676,233.199860 220.259964,233.549728 
	C220.152939,233.623047 219.904602,233.620758 219.800095,233.544891 
	C219.299637,233.181595 219.317932,232.786667 220.045181,232.413025 
z"/>
<path fill="#E0E8D4" opacity="1.000000" stroke="none" 
	d="
M115.573059,251.955963 
	C115.255714,251.557159 115.199799,251.107117 115.227646,250.324707 
	C116.608398,250.322739 117.396950,250.792191 115.573059,251.955963 
z"/>
<path fill="#E0E8D4" opacity="1.000000" stroke="none" 
	d="
M121.597214,246.271484 
	C121.441734,246.148758 121.419403,245.938126 121.397064,245.727478 
	C121.508163,245.879501 121.619263,246.031525 121.597214,246.271484 
z"/>
<path fill="#545750" opacity="1.000000" stroke="none" 
	d="
M164.921387,243.850250 
	C164.499512,243.891602 163.854385,243.718124 163.768768,243.395966 
	C163.607590,242.789383 164.180786,242.703217 164.843048,242.876953 
	C164.983505,243.191788 164.967102,243.380051 164.921387,243.850250 
z"/>
<path fill="#E0E8D4" opacity="1.000000" stroke="none" 
	d="
M327.927032,271.095306 
	C322.196808,272.646881 326.726410,269.400452 326.705383,268.104309 
	C327.101532,268.975861 327.497681,269.847382 327.927032,271.095306 
z"/>
<path fill="#1F1F1D" opacity="1.000000" stroke="none" 
	d="
M145.561829,252.925293 
	C145.489105,255.357132 148.741318,252.307877 148.126831,254.801895 
	C147.824020,256.030945 147.594345,257.721649 146.150650,257.961670 
	C144.639999,258.212830 144.747391,256.393494 144.196198,255.481583 
	C143.604019,254.501816 143.272018,253.364777 142.810608,252.258270 
	C142.469498,252.382645 142.161240,252.399216 142.020142,252.561295 
	C140.616699,254.173431 140.867996,257.781921 138.875626,257.758270 
	C136.412979,257.729034 136.679413,254.201233 135.590378,252.288528 
	C133.974030,249.449677 133.583603,245.989273 131.267990,243.510895 
	C134.258591,242.841278 134.217514,242.856949 135.695892,246.733566 
	C136.628143,249.178116 137.705643,251.567291 138.818375,254.220749 
	C142.931732,250.227249 140.896240,246.788132 138.575119,243.113785 
	C139.317642,242.988281 139.928619,242.805481 140.542679,242.794525 
	C143.800140,242.736465 146.082901,243.314438 144.112885,247.453186 
	C143.238174,249.290817 144.976410,250.889114 145.561829,252.925293 
z"/>
<path fill="#E0E8D4" opacity="1.000000" stroke="none" 
	d="
M142.845932,244.716263 
	C142.566635,244.721298 142.492966,244.501266 142.419312,244.281250 
	C142.630066,244.351242 142.840820,244.421219 142.845932,244.716263 
z"/>
</svg>